<svg xmlns="http://www.w3.org/2000/svg" xmlns:xlink="http://www.w3.org/1999/xlink" width="1500" zoomAndPan="magnify" viewBox="0 0 1125 1124.99995" height="1500" preserveAspectRatio="xMidYMid meet" version="1.0"><defs><clipPath id="db0d49e75b"><path d="M 94 71.707031 L 350 71.707031 L 350 168 L 94 168 Z M 94 71.707031 " clip-rule="nonzero"/></clipPath><clipPath id="e11c3a4fe0"><path d="M 837 988 L 911 988 L 911 1053.453125 L 837 1053.453125 Z M 837 988 " clip-rule="nonzero"/></clipPath><clipPath id="314e3e7091"><path d="M 68.617188 757 L 715 757 L 715 897 L 68.617188 897 Z M 68.617188 757 " clip-rule="nonzero"/></clipPath></defs><path fill="#1d1d1f" d="M 921.5625 1021.988281 L 275.554688 1021.988281 C 265.710938 1021.988281 258.628906 1015.898438 257.746094 1006.675781 L 180.078125 208.238281 C 179.316406 200.277344 183.171875 192.019531 189.34375 185.832031 C 195.285156 179.878906 212.5625 162.289062 212.5625 162.289062 L 857.558594 175.839844 C 867.398438 175.839844 874.476562 181.929688 875.363281 191.15625 L 963.371094 993.46875 C 963.371094 993.46875 949.53125 1006.660156 942.796875 1012.933594 C 936.960938 1018.371094 929.304688 1021.988281 921.5625 1021.988281 " fill-opacity="1" fill-rule="nonzero"/><path fill="#1d1d1f" d="M 213.042969 163.492188 C 210.535156 166.035156 195.578125 181.257812 190.179688 186.667969 C 183.902344 192.960938 180.566406 200.984375 181.253906 208.128906 L 258.917969 1006.5625 C 259.75 1015.214844 266.277344 1020.808594 275.550781 1020.808594 L 921.558594 1020.808594 C 928.585938 1020.808594 936.027344 1017.621094 941.988281 1012.070312 C 947.976562 1006.488281 959.746094 995.285156 962.128906 993.023438 L 874.1875 191.285156 C 873.351562 182.617188 866.828125 177.027344 857.550781 177.027344 Z M 921.558594 1023.167969 L 275.550781 1023.167969 C 265.136719 1023.167969 257.507812 1016.589844 256.570312 1006.789062 L 178.902344 208.359375 C 178.148438 200.515625 181.742188 191.789062 188.507812 185.003906 C 194.375 179.121094 211.542969 161.648438 211.714844 161.472656 C 211.945312 161.242188 212.277344 161.117188 212.582031 161.117188 L 857.574219 174.664062 C 867.96875 174.664062 875.59375 181.25 876.53125 191.046875 L 964.53125 993.34375 C 964.574219 993.714844 964.445312 994.074219 964.171875 994.332031 C 964.042969 994.460938 950.257812 1007.59375 943.59375 1013.796875 C 937.210938 1019.75 929.175781 1023.167969 921.558594 1023.167969 " fill-opacity="1" fill-rule="nonzero"/><path fill="#ffffff" d="M 944.085938 998.199219 L 298.074219 998.199219 C 288.234375 998.199219 281.152344 992.117188 280.265625 982.890625 L 203.886719 186.703125 C 202.386719 171.082031 218.683594 154.308594 235.351562 154.308594 L 881.363281 154.308594 C 891.203125 154.308594 898.289062 160.394531 899.175781 169.617188 L 975.554688 965.804688 C 977.050781 981.425781 960.757812 998.199219 944.085938 998.199219 " fill-opacity="1" fill-rule="nonzero"/><path fill="#1d1d1f" d="M 235.351562 155.488281 C 227.429688 155.488281 219.011719 159.542969 212.84375 166.332031 C 207.253906 172.488281 204.414062 179.871094 205.0625 186.59375 L 281.441406 982.777344 C 282.269531 991.429688 288.796875 997.023438 298.074219 997.023438 L 944.085938 997.023438 C 952.011719 997.023438 960.421875 992.96875 966.601562 986.179688 C 972.1875 980.019531 975.023438 972.644531 974.375 965.917969 L 897.996094 169.730469 C 897.164062 161.078125 890.632812 155.488281 881.363281 155.488281 Z M 944.085938 999.382812 L 298.074219 999.382812 C 287.660156 999.382812 280.03125 992.800781 279.089844 983.003906 L 202.710938 186.816406 C 202.003906 179.429688 205.058594 171.386719 211.097656 164.742188 C 217.707031 157.472656 226.773438 153.125 235.351562 153.125 L 881.363281 153.125 C 891.777344 153.125 899.40625 159.707031 900.347656 169.503906 L 976.726562 965.691406 C 977.433594 973.078125 974.375 981.121094 968.339844 987.765625 C 961.730469 995.039062 952.664062 999.382812 944.085938 999.382812 " fill-opacity="1" fill-rule="nonzero"/><path fill="#1d1d1f" d="M 280.289062 207.238281 C 273.347656 207.238281 265.96875 210.792969 260.5625 216.742188 C 255.660156 222.132812 253.175781 228.601562 253.742188 234.488281 L 321.039062 936.003906 C 321.761719 943.554688 327.460938 948.429688 335.554688 948.429688 L 904.75 948.429688 C 911.695312 948.429688 919.066406 944.871094 924.480469 938.917969 C 929.378906 933.523438 931.867188 927.0625 931.300781 921.171875 L 864 219.660156 C 863.273438 212.113281 857.582031 207.238281 849.488281 207.238281 Z M 904.75 950.789062 L 335.554688 950.789062 C 326.300781 950.789062 319.523438 944.9375 318.6875 936.234375 L 251.390625 234.714844 C 250.761719 228.167969 253.46875 221.042969 258.8125 215.15625 C 264.664062 208.71875 272.691406 204.875 280.289062 204.875 L 849.488281 204.875 C 858.742188 204.875 865.519531 210.726562 866.351562 219.433594 L 933.648438 920.949219 C 934.277344 927.496094 931.570312 934.625 926.222656 940.507812 C 920.378906 946.941406 912.351562 950.789062 904.75 950.789062 " fill-opacity="1" fill-rule="nonzero"/><path fill="#1d1d1f" d="M 398.742188 950.648438 L 335.554688 950.648438 C 326.304688 950.648438 319.523438 944.796875 318.6875 936.089844 L 301.996094 762.074219 C 301.933594 761.425781 302.410156 760.847656 303.058594 760.789062 C 303.722656 760.730469 304.28125 761.203125 304.34375 761.851562 L 321.039062 935.863281 C 321.761719 943.410156 327.460938 948.289062 335.554688 948.289062 L 398.742188 948.289062 C 399.394531 948.289062 399.921875 948.816406 399.921875 949.46875 C 399.921875 950.117188 399.394531 950.648438 398.742188 950.648438 " fill-opacity="1" fill-rule="nonzero"/><path fill="#1d1d1f" d="M 893.113281 511.835938 C 892.515625 511.835938 891.996094 511.382812 891.941406 510.769531 L 885.660156 445.261719 C 885.597656 444.613281 886.070312 444.035156 886.71875 443.980469 C 887.378906 443.898438 887.945312 444.390625 888.007812 445.042969 L 894.292969 510.550781 C 894.355469 511.195312 893.878906 511.777344 893.230469 511.832031 C 893.195312 511.835938 893.152344 511.835938 893.113281 511.835938 " fill-opacity="1" fill-rule="nonzero"/><path fill="#1d1d1f" d="M 140.34375 158.648438 L 153.988281 215.433594 C 159.703125 238.664062 202.84375 247.839844 250.351562 235.929688 C 297.859375 224.015625 331.742188 195.53125 326.027344 172.304688 L 312.382812 115.523438 L 140.34375 158.648438 " fill-opacity="1" fill-rule="nonzero"/><path fill="#1d1d1f" d="M 141.761719 159.511719 L 155.136719 215.15625 C 156.648438 221.304688 160.914062 226.527344 167.8125 230.679688 C 185.421875 241.285156 217.710938 242.894531 250.066406 234.785156 C 296.867188 223.046875 330.429688 195.148438 324.882812 172.585938 L 311.515625 116.953125 Z M 209.855469 242.359375 C 192.449219 242.359375 177.222656 239.101562 166.597656 232.703125 C 159.136719 228.214844 154.511719 222.5 152.84375 215.71875 L 139.195312 158.929688 C 139.042969 158.296875 139.425781 157.664062 140.054688 157.507812 L 312.097656 114.375 C 312.398438 114.296875 312.722656 114.347656 312.996094 114.511719 C 313.261719 114.675781 313.457031 114.9375 313.527344 115.246094 L 327.175781 172.03125 C 333.03125 195.84375 298.699219 225.023438 250.640625 237.074219 C 236.507812 240.617188 222.597656 242.359375 209.855469 242.359375 " fill-opacity="1" fill-rule="nonzero"/><path fill="#ffffff" d="M 312.941406 97.09375 L 215.460938 81.660156 C 213.652344 81.480469 211.835938 81.933594 210.320312 82.953125 L 131.3125 142.628906 L 96.1875 151.4375 L 100.367188 168.449219 C 100.632812 169.515625 101.492188 170.425781 102.792969 170.554688 L 235.082031 183.652344 C 236.894531 183.828125 238.710938 183.375 240.226562 182.367188 L 351.085938 108.3125 C 352.175781 107.585938 352.511719 106.371094 352.25 105.304688 L 348.066406 88.292969 L 312.941406 97.09375 " fill-opacity="1" fill-rule="nonzero"/><path fill="#1d1d1f" d="M 97.613281 152.292969 L 101.515625 168.164062 C 101.582031 168.417969 101.871094 169.273438 102.910156 169.378906 L 235.203125 182.476562 C 236.734375 182.625 238.285156 182.234375 239.570312 181.378906 L 350.429688 107.324219 C 351.132812 106.859375 351.238281 106.117188 351.105469 105.578125 L 347.207031 89.714844 L 313.230469 98.238281 C 313.078125 98.273438 312.914062 98.28125 312.757812 98.261719 L 215.277344 82.824219 C 213.8125 82.6875 212.261719 83.070312 210.976562 83.925781 L 132.023438 143.566406 C 131.898438 143.667969 131.753906 143.730469 131.601562 143.773438 Z M 235.855469 184.867188 C 235.5625 184.867188 235.261719 184.851562 234.96875 184.824219 L 102.679688 171.726562 C 100.988281 171.558594 99.632812 170.382812 99.222656 168.71875 L 95.039062 151.714844 C 94.886719 151.085938 95.269531 150.449219 95.898438 150.285156 L 130.792969 141.539062 L 209.609375 82 C 211.402344 80.796875 213.503906 80.277344 215.578125 80.480469 L 312.890625 95.890625 L 347.78125 87.140625 C 348.085938 87.066406 348.410156 87.113281 348.679688 87.277344 C 348.949219 87.441406 349.140625 87.703125 349.214844 88.003906 L 353.398438 105.011719 C 353.804688 106.667969 353.15625 108.34375 351.742188 109.285156 L 240.882812 183.339844 C 239.390625 184.335938 237.632812 184.867188 235.855469 184.867188 " fill-opacity="1" fill-rule="nonzero"/><path fill="#1d1d1f" d="M 345.640625 86.179688 L 213.351562 73.085938 C 211.542969 72.90625 209.726562 73.363281 208.210938 74.375 L 97.351562 148.429688 C 95.171875 149.882812 96.007812 153.292969 98.609375 153.546875 L 230.902344 166.640625 C 232.710938 166.820312 234.527344 166.367188 236.042969 165.355469 L 346.902344 91.304688 C 349.085938 89.84375 348.246094 86.4375 345.640625 86.179688 " fill-opacity="1" fill-rule="nonzero"/><g clip-path="url(#db0d49e75b)"><path fill="#1d1d1f" d="M 212.582031 74.230469 C 211.269531 74.230469 209.96875 74.621094 208.867188 75.355469 L 98.007812 149.414062 C 97.304688 149.882812 97.199219 150.625 97.335938 151.164062 C 97.398438 151.421875 97.6875 152.269531 98.726562 152.375 L 231.015625 165.472656 C 232.546875 165.621094 234.101562 165.234375 235.386719 164.375 L 346.246094 90.316406 C 346.949219 89.855469 347.054688 89.105469 346.917969 88.566406 C 346.851562 88.308594 346.5625 87.460938 345.527344 87.355469 L 213.234375 74.261719 C 213.015625 74.238281 212.800781 74.230469 212.582031 74.230469 Z M 231.667969 167.867188 C 231.375 167.867188 231.078125 167.851562 230.785156 167.820312 L 98.496094 154.71875 C 96.808594 154.554688 95.457031 153.386719 95.042969 151.734375 C 94.628906 150.082031 95.277344 148.394531 96.695312 147.445312 L 207.554688 73.390625 C 209.292969 72.238281 211.390625 71.707031 213.46875 71.917969 L 345.757812 85.007812 C 347.441406 85.175781 348.796875 86.351562 349.210938 87.996094 C 349.625 89.65625 348.976562 91.335938 347.558594 92.28125 L 236.699219 166.339844 C 235.203125 167.328125 233.445312 167.867188 231.667969 167.867188 " fill-opacity="1" fill-rule="nonzero"/></g><path fill="#ffffff" d="M 296.265625 174.976562 C 296.261719 174.976562 296.261719 174.976562 296.257812 174.976562 C 295.605469 174.972656 295.082031 174.433594 295.085938 173.785156 L 295.519531 126.261719 L 221.222656 117.882812 C 220.574219 117.8125 220.105469 117.226562 220.179688 116.578125 C 220.253906 115.929688 220.839844 115.46875 221.484375 115.539062 L 296.839844 124.035156 C 297.441406 124.101562 297.894531 124.617188 297.890625 125.21875 L 297.449219 173.804688 C 297.441406 174.457031 296.914062 174.976562 296.265625 174.976562 " fill-opacity="1" fill-rule="nonzero"/><path fill="#ffffff" d="M 296.191406 169.917969 C 293.707031 169.988281 291.699219 171.972656 291.59375 174.457031 L 288.644531 244.609375 L 307.699219 244.09375 L 301.019531 174.203125 C 300.785156 171.722656 298.675781 169.851562 296.191406 169.917969 " fill-opacity="1" fill-rule="nonzero"/><path fill="#1d1d1f" d="M 296.316406 171.097656 C 296.285156 171.097656 296.253906 171.097656 296.222656 171.097656 C 294.367188 171.144531 292.855469 172.644531 292.773438 174.507812 L 289.875 243.390625 L 306.40625 242.945312 L 299.84375 174.316406 C 299.671875 172.488281 298.132812 171.097656 296.316406 171.097656 Z M 288.644531 245.785156 C 288.328125 245.785156 288.023438 245.664062 287.800781 245.433594 C 287.574219 245.199219 287.453125 244.886719 287.464844 244.558594 L 290.417969 174.410156 C 290.546875 171.308594 293.066406 168.820312 296.160156 168.734375 C 299.226562 168.6875 301.902344 171.007812 302.195312 174.089844 L 308.875 243.976562 C 308.90625 244.304688 308.800781 244.632812 308.585938 244.871094 C 308.367188 245.121094 308.058594 245.265625 307.734375 245.269531 L 288.675781 245.785156 C 288.664062 245.785156 288.652344 245.785156 288.644531 245.785156 " fill-opacity="1" fill-rule="nonzero"/><path fill="#ffffff" d="M 719.433594 732.816406 L 358.242188 735.246094 C 349.488281 735.304688 341.890625 728.390625 341.273438 719.808594 L 334.824219 629.703125 C 334.207031 621.121094 340.808594 614.109375 349.5625 614.050781 L 710.753906 611.628906 C 719.511719 611.570312 727.105469 618.476562 727.722656 627.0625 L 734.171875 717.167969 C 734.792969 725.753906 728.1875 732.757812 719.433594 732.816406 " fill-opacity="1" fill-rule="nonzero"/><path fill="#1d1d1f" d="M 710.863281 612.808594 C 710.832031 612.808594 710.796875 612.808594 710.765625 612.808594 L 349.570312 615.238281 C 345.613281 615.257812 342.023438 616.804688 339.457031 619.582031 C 336.957031 622.28125 335.730469 625.84375 336 629.621094 L 342.453125 719.722656 C 343.023438 727.683594 350.160156 734.101562 358.234375 734.066406 L 719.425781 731.636719 C 723.382812 731.609375 726.976562 730.066406 729.539062 727.292969 C 732.039062 724.589844 733.269531 721.023438 732.992188 717.253906 L 726.542969 627.144531 C 725.972656 619.214844 718.953125 612.808594 710.863281 612.808594 Z M 358.132812 736.425781 C 348.828125 736.425781 340.753906 729.035156 340.097656 719.890625 L 333.644531 629.789062 C 333.328125 625.355469 334.777344 621.164062 337.722656 617.976562 C 340.738281 614.714844 344.9375 612.90625 349.554688 612.875 L 710.746094 610.441406 C 710.785156 610.441406 710.828125 610.441406 710.863281 610.441406 C 720.164062 610.441406 728.242188 617.839844 728.894531 626.976562 L 735.347656 717.082031 C 735.667969 721.511719 734.222656 725.710938 731.273438 728.894531 C 728.257812 732.15625 724.058594 733.964844 719.441406 733.996094 L 719.433594 732.816406 L 719.441406 733.996094 L 358.25 736.425781 C 358.210938 736.425781 358.167969 736.425781 358.132812 736.425781 " fill-opacity="1" fill-rule="nonzero"/><path fill="#1d1d1f" d="M 701.972656 672.308594 C 703.605469 695.085938 686.09375 713.679688 662.855469 713.835938 C 639.625 713.992188 619.464844 695.65625 617.835938 672.875 C 616.203125 650.097656 633.71875 631.503906 656.953125 631.347656 C 680.183594 631.191406 700.34375 649.527344 701.972656 672.308594 " fill-opacity="1" fill-rule="nonzero"/><path fill="#ffffff" d="M 646.859375 654.996094 L 655.578125 690.40625 L 682.320312 667.070312 Z M 654.894531 693.746094 C 654.773438 693.746094 654.65625 693.730469 654.539062 693.691406 C 654.148438 693.570312 653.847656 693.246094 653.75 692.851562 L 644.054688 653.464844 C 643.953125 653.046875 644.085938 652.605469 644.402344 652.3125 C 644.71875 652.023438 645.167969 651.925781 645.582031 652.066406 L 685.015625 665.5 C 685.417969 665.632812 685.714844 665.972656 685.792969 666.382812 C 685.878906 666.800781 685.734375 667.226562 685.414062 667.503906 L 655.671875 693.457031 C 655.449219 693.644531 655.175781 693.746094 654.894531 693.746094 " fill-opacity="1" fill-rule="nonzero"/><path fill="#ffffff" d="M 652.070312 653.136719 C 652.339844 656.859375 649.476562 659.894531 645.679688 659.921875 C 641.886719 659.949219 638.59375 656.949219 638.328125 653.230469 C 638.058594 649.507812 640.921875 646.472656 644.71875 646.445312 C 648.511719 646.417969 651.804688 649.417969 652.070312 653.136719 " fill-opacity="1" fill-rule="nonzero"/><path fill="#1d1d1f" d="M 644.765625 647.625 C 644.75 647.625 644.742188 647.625 644.722656 647.625 C 643.195312 647.636719 641.8125 648.230469 640.824219 649.296875 C 639.871094 650.328125 639.398438 651.695312 639.507812 653.144531 C 639.726562 656.253906 642.5 658.804688 645.671875 658.742188 C 647.203125 658.730469 648.585938 658.136719 649.570312 657.070312 C 650.527344 656.039062 651 654.671875 650.890625 653.222656 C 650.671875 650.128906 647.925781 647.625 644.765625 647.625 Z M 645.636719 661.101562 C 641.257812 661.101562 637.457031 657.621094 637.152344 653.316406 C 637.003906 651.207031 637.6875 649.210938 639.09375 647.695312 C 640.523438 646.136719 642.519531 645.28125 644.707031 645.265625 C 649.09375 645.238281 652.941406 648.730469 653.246094 653.050781 C 653.402344 655.160156 652.710938 657.15625 651.304688 658.671875 C 649.875 660.222656 647.878906 661.085938 645.691406 661.101562 C 645.671875 661.101562 645.652344 661.101562 645.636719 661.101562 " fill-opacity="1" fill-rule="nonzero"/><path fill="#ffffff" d="M 663.875 692.507812 C 664.222656 697.371094 660.488281 701.339844 655.527344 701.371094 C 650.566406 701.402344 646.257812 697.488281 645.914062 692.625 C 645.566406 687.761719 649.304688 683.792969 654.265625 683.761719 C 659.226562 683.726562 663.527344 687.644531 663.875 692.507812 " fill-opacity="1" fill-rule="nonzero"/><path fill="#1d1d1f" d="M 654.324219 684.941406 C 654.308594 684.941406 654.292969 684.941406 654.269531 684.941406 C 652.175781 684.957031 650.269531 685.773438 648.914062 687.234375 C 647.59375 688.664062 646.945312 690.550781 647.089844 692.542969 C 647.394531 696.769531 651.144531 700.191406 655.460938 700.191406 C 655.480469 700.191406 655.5 700.191406 655.515625 700.191406 C 657.617188 700.175781 659.519531 699.363281 660.878906 697.890625 C 662.195312 696.46875 662.839844 694.582031 662.699219 692.59375 C 662.394531 688.359375 658.648438 684.941406 654.324219 684.941406 Z M 655.460938 702.550781 C 649.933594 702.550781 645.125 698.15625 644.734375 692.710938 C 644.546875 690.054688 645.410156 687.546875 647.179688 685.636719 C 648.984375 683.683594 651.496094 682.597656 654.253906 682.582031 C 654.28125 682.582031 654.300781 682.582031 654.324219 682.582031 C 659.859375 682.582031 664.664062 686.980469 665.054688 692.421875 C 665.242188 695.074219 664.375 697.585938 662.609375 699.496094 C 660.804688 701.449219 658.292969 702.535156 655.53125 702.550781 C 655.507812 702.550781 655.488281 702.550781 655.460938 702.550781 " fill-opacity="1" fill-rule="nonzero"/><path fill="#ffffff" d="M 691.511719 666.566406 C 691.777344 670.289062 688.914062 673.332031 685.117188 673.351562 C 681.328125 673.378906 678.035156 670.386719 677.765625 666.664062 C 677.496094 662.941406 680.359375 659.90625 684.160156 659.878906 C 687.949219 659.851562 691.242188 662.847656 691.511719 666.566406 " fill-opacity="1" fill-rule="nonzero"/><path fill="#1d1d1f" d="M 684.199219 661.058594 C 684.191406 661.058594 684.179688 661.058594 684.164062 661.058594 C 682.636719 661.070312 681.25 661.660156 680.265625 662.726562 C 679.308594 663.761719 678.839844 665.128906 678.945312 666.578125 C 679.164062 669.671875 681.910156 672.171875 685.074219 672.171875 C 685.085938 672.171875 685.097656 672.171875 685.113281 672.171875 C 686.640625 672.160156 688.023438 671.570312 689.011719 670.503906 C 689.964844 669.46875 690.4375 668.101562 690.332031 666.652344 C 690.109375 663.558594 687.363281 661.058594 684.199219 661.058594 Z M 685.074219 674.53125 C 680.699219 674.53125 676.894531 671.050781 676.589844 666.742188 C 676.441406 664.636719 677.125 662.640625 678.53125 661.125 C 679.964844 659.574219 681.960938 658.710938 684.148438 658.699219 C 688.507812 658.691406 692.378906 662.164062 692.683594 666.484375 C 692.839844 668.589844 692.148438 670.589844 690.742188 672.105469 C 689.3125 673.65625 687.316406 674.519531 685.128906 674.53125 C 685.113281 674.53125 685.089844 674.53125 685.074219 674.53125 " fill-opacity="1" fill-rule="nonzero"/><path fill="#1d1d1f" d="M 377.710938 655.941406 C 377.058594 655.941406 376.53125 655.421875 376.527344 654.773438 C 376.523438 654.121094 377.046875 653.585938 377.699219 653.582031 L 577.890625 652.238281 L 577.898438 652.238281 C 578.546875 652.238281 579.070312 652.761719 579.078125 653.410156 C 579.082031 654.066406 578.558594 654.59375 577.90625 654.601562 L 377.714844 655.941406 C 377.714844 655.941406 377.710938 655.941406 377.710938 655.941406 " fill-opacity="1" fill-rule="nonzero"/><path fill="#1d1d1f" d="M 525.007812 674.679688 C 524.363281 674.679688 523.832031 674.15625 523.828125 673.507812 C 523.820312 672.851562 524.347656 672.320312 525 672.320312 L 551.902344 672.136719 C 551.90625 672.136719 551.90625 672.136719 551.914062 672.136719 C 552.5625 672.136719 553.085938 672.660156 553.09375 673.308594 C 553.097656 673.964844 552.570312 674.492188 551.917969 674.5 L 525.015625 674.679688 C 525.011719 674.679688 525.011719 674.679688 525.007812 674.679688 " fill-opacity="1" fill-rule="nonzero"/><path fill="#1d1d1f" d="M 379.117188 675.660156 C 378.472656 675.660156 377.945312 675.136719 377.941406 674.488281 C 377.933594 673.832031 378.460938 673.304688 379.113281 673.296875 L 475.644531 672.648438 L 475.652344 672.648438 C 476.300781 672.648438 476.832031 673.171875 476.832031 673.824219 C 476.835938 674.476562 476.308594 675.007812 475.660156 675.011719 L 379.128906 675.660156 C 379.125 675.660156 379.121094 675.660156 379.117188 675.660156 " fill-opacity="1" fill-rule="nonzero"/><path fill="#1d1d1f" d="M 477.066406 694.726562 C 476.417969 694.726562 475.886719 694.203125 475.886719 693.550781 C 475.878906 692.898438 476.40625 692.367188 477.054688 692.363281 L 513.257812 692.121094 C 513.261719 692.121094 513.261719 692.121094 513.265625 692.121094 C 513.917969 692.121094 514.441406 692.648438 514.445312 693.292969 C 514.453125 693.945312 513.925781 694.476562 513.273438 694.480469 L 477.074219 694.726562 L 477.066406 694.726562 " fill-opacity="1" fill-rule="nonzero"/><path fill="#1d1d1f" d="M 380.53125 695.378906 C 379.882812 695.378906 379.355469 694.851562 379.351562 694.203125 C 379.34375 693.546875 379.871094 693.015625 380.523438 693.011719 L 435.910156 692.640625 C 435.917969 692.640625 435.917969 692.640625 435.921875 692.640625 C 436.570312 692.640625 437.097656 693.167969 437.101562 693.816406 C 437.109375 694.464844 436.582031 694.996094 435.925781 695.003906 L 380.539062 695.378906 C 380.539062 695.378906 380.53125 695.378906 380.53125 695.378906 " fill-opacity="1" fill-rule="nonzero"/><path fill="#ffffff" d="M 513.15625 430.714844 L 152.070312 433.246094 C 143.320312 433.304688 135.425781 426.101562 134.445312 417.144531 L 124.117188 323.167969 C 123.136719 314.21875 129.433594 306.910156 138.1875 306.847656 L 499.273438 304.316406 C 508.023438 304.253906 515.921875 311.460938 516.902344 320.414062 L 527.226562 414.394531 C 528.207031 423.34375 521.910156 430.648438 513.15625 430.714844 " fill-opacity="1" fill-rule="nonzero"/><path fill="#1d1d1f" d="M 513.15625 430.714844 L 513.167969 430.714844 Z M 499.386719 305.496094 C 499.347656 305.496094 499.320312 305.496094 499.277344 305.496094 L 138.195312 308.03125 C 134.386719 308.054688 130.953125 309.570312 128.527344 312.296875 C 125.992188 315.144531 124.84375 318.957031 125.292969 323.042969 L 135.617188 417.019531 C 136.53125 425.371094 143.914062 432.148438 152.0625 432.066406 L 513.144531 429.527344 C 516.960938 429.511719 520.390625 427.988281 522.816406 425.265625 C 525.351562 422.414062 526.5 418.597656 526.050781 414.519531 L 515.730469 320.542969 C 514.816406 312.222656 507.492188 305.496094 499.386719 305.496094 Z M 151.960938 434.429688 C 142.679688 434.429688 134.3125 426.753906 133.269531 417.273438 L 122.945312 323.300781 C 122.421875 318.542969 123.777344 314.078125 126.761719 310.722656 C 129.636719 307.492188 133.691406 305.699219 138.179688 305.667969 L 499.261719 303.136719 C 499.304688 303.136719 499.339844 303.136719 499.382812 303.136719 C 508.660156 303.136719 517.035156 310.804688 518.074219 320.28125 L 528.398438 414.261719 C 528.917969 419.015625 527.558594 423.480469 524.582031 426.835938 C 521.707031 430.066406 517.652344 431.859375 513.167969 431.894531 C 513.160156 431.894531 513.160156 431.894531 513.160156 431.894531 L 152.078125 434.429688 C 152.039062 434.429688 152 434.429688 151.960938 434.429688 " fill-opacity="1" fill-rule="nonzero"/><path fill="#1d1d1f" d="M 168.082031 350.484375 C 167.433594 350.484375 166.902344 349.960938 166.898438 349.316406 C 166.894531 348.664062 167.421875 348.128906 168.074219 348.125 L 368.203125 346.722656 C 368.207031 346.722656 368.207031 346.722656 368.210938 346.722656 C 368.859375 346.722656 369.386719 347.246094 369.390625 347.894531 C 369.394531 348.542969 368.871094 349.074219 368.21875 349.082031 L 168.085938 350.484375 C 168.085938 350.484375 168.082031 350.484375 168.082031 350.484375 " fill-opacity="1" fill-rule="nonzero"/><path fill="#1d1d1f" d="M 340.609375 369.855469 C 339.960938 369.855469 339.433594 369.328125 339.429688 368.6875 C 339.425781 368.03125 339.949219 367.5 340.601562 367.492188 L 355.53125 367.386719 C 355.535156 367.386719 355.539062 367.386719 355.539062 367.386719 C 356.1875 367.386719 356.714844 367.914062 356.71875 368.5625 C 356.726562 369.210938 356.199219 369.746094 355.550781 369.746094 L 340.617188 369.855469 C 340.613281 369.855469 340.613281 369.855469 340.609375 369.855469 " fill-opacity="1" fill-rule="nonzero"/><path fill="#1d1d1f" d="M 252.804688 370.472656 C 252.15625 370.472656 251.628906 369.945312 251.625 369.296875 C 251.621094 368.648438 252.144531 368.117188 252.796875 368.113281 L 325.664062 367.597656 C 325.667969 367.597656 325.667969 367.597656 325.671875 367.597656 C 326.320312 367.597656 326.847656 368.121094 326.851562 368.773438 C 326.855469 369.417969 326.332031 369.957031 325.683594 369.957031 L 252.8125 370.472656 C 252.808594 370.472656 252.808594 370.472656 252.804688 370.472656 " fill-opacity="1" fill-rule="nonzero"/><path fill="#1d1d1f" d="M 170.339844 371.050781 C 169.691406 371.050781 169.164062 370.523438 169.160156 369.875 C 169.152344 369.226562 169.679688 368.691406 170.332031 368.691406 L 198.019531 368.492188 C 198.019531 368.492188 198.023438 368.492188 198.027344 368.492188 C 198.675781 368.492188 199.203125 369.015625 199.207031 369.667969 C 199.210938 370.316406 198.6875 370.851562 198.035156 370.851562 L 170.347656 371.050781 C 170.34375 371.050781 170.34375 371.050781 170.339844 371.050781 " fill-opacity="1" fill-rule="nonzero"/><path fill="#1d1d1f" d="M 287.199219 390.808594 C 286.550781 390.808594 286.023438 390.28125 286.019531 389.632812 C 286.011719 388.984375 286.539062 388.445312 287.191406 388.445312 L 331.886719 388.132812 C 331.886719 388.132812 331.890625 388.132812 331.894531 388.132812 C 332.539062 388.132812 333.070312 388.65625 333.074219 389.304688 C 333.078125 389.957031 332.554688 390.492188 331.902344 390.492188 L 287.207031 390.808594 C 287.203125 390.808594 287.199219 390.808594 287.199219 390.808594 " fill-opacity="1" fill-rule="nonzero"/><path fill="#1d1d1f" d="M 172.597656 391.613281 C 171.949219 391.613281 171.421875 391.085938 171.417969 390.4375 C 171.414062 389.789062 171.9375 389.25 172.589844 389.25 L 235.871094 388.808594 C 235.875 388.808594 235.878906 388.808594 235.878906 388.808594 C 236.527344 388.808594 237.054688 389.328125 237.0625 389.976562 C 237.066406 390.628906 236.539062 391.164062 235.886719 391.167969 L 172.605469 391.613281 C 172.605469 391.613281 172.601562 391.613281 172.597656 391.613281 " fill-opacity="1" fill-rule="nonzero"/><path fill="#1d1d1f" d="M 493.101562 367.605469 C 495.710938 391.367188 479 410.757812 455.769531 410.917969 C 432.542969 411.078125 411.597656 391.949219 408.988281 368.199219 C 406.378906 344.4375 423.089844 325.042969 446.320312 324.882812 C 469.546875 324.71875 490.488281 343.847656 493.101562 367.605469 " fill-opacity="1" fill-rule="nonzero"/><path fill="#ffffff" d="M 457.703125 361.128906 L 455.851562 344.28125 L 441.0625 344.386719 L 442.910156 361.238281 C 436.183594 364.257812 431.984375 371.402344 432.898438 379.699219 C 434.105469 390.667969 443.78125 399.507812 454.511719 399.429688 C 465.238281 399.351562 472.960938 390.394531 471.757812 379.425781 C 470.839844 371.128906 465.09375 364.054688 457.703125 361.128906 " fill-opacity="1" fill-rule="nonzero"/><path fill="#1d1d1f" d="M 442.371094 345.558594 L 444.089844 361.105469 C 444.144531 361.617188 443.863281 362.101562 443.394531 362.3125 C 436.898438 365.230469 433.242188 372.003906 434.074219 379.566406 C 435.210938 389.894531 444.300781 398.25 454.371094 398.25 C 454.417969 398.25 454.460938 398.25 454.503906 398.25 C 459.246094 398.21875 463.527344 396.332031 466.546875 392.929688 C 469.707031 389.378906 471.136719 384.628906 470.582031 379.554688 C 469.734375 371.898438 464.515625 365.097656 457.265625 362.226562 C 456.859375 362.066406 456.578125 361.695312 456.53125 361.257812 L 454.796875 345.472656 Z M 454.371094 400.609375 C 443.132812 400.609375 432.988281 391.320312 431.722656 379.828125 C 430.8125 371.527344 434.691406 364.054688 441.648438 360.527344 L 439.890625 344.515625 C 439.851562 344.183594 439.957031 343.851562 440.183594 343.597656 C 440.402344 343.355469 440.71875 343.207031 441.054688 343.207031 L 455.839844 343.101562 C 456.433594 343.128906 456.960938 343.554688 457.027344 344.15625 L 458.800781 360.308594 C 466.503906 363.640625 472.019531 371.015625 472.929688 379.292969 C 473.554688 385.046875 471.917969 390.445312 468.308594 394.5 C 464.84375 398.40625 459.941406 400.574219 454.515625 400.609375 C 454.472656 400.609375 454.421875 400.609375 454.371094 400.609375 " fill-opacity="1" fill-rule="nonzero"/><path fill="#ffffff" d="M 457.980469 347.433594 L 439.621094 347.566406 C 438.074219 347.570312 436.683594 346.300781 436.507812 344.714844 L 436.292969 342.773438 C 436.121094 341.1875 437.238281 339.894531 438.785156 339.882812 L 457.140625 339.757812 C 458.679688 339.746094 460.082031 341.023438 460.253906 342.601562 L 460.464844 344.550781 C 460.640625 346.128906 459.53125 347.421875 457.980469 347.433594 " fill-opacity="1" fill-rule="nonzero"/><path fill="#1d1d1f" d="M 457.15625 340.933594 C 457.15625 340.933594 457.148438 340.933594 457.144531 340.933594 L 438.789062 341.066406 C 438.398438 341.066406 438.039062 341.21875 437.800781 341.492188 C 437.539062 341.789062 437.421875 342.195312 437.46875 342.640625 L 437.683594 344.589844 C 437.789062 345.558594 438.671875 346.382812 439.601562 346.382812 C 439.609375 346.382812 439.613281 346.382812 439.621094 346.382812 L 457.972656 346.25 C 458.367188 346.25 458.71875 346.097656 458.960938 345.820312 C 459.222656 345.527344 459.347656 345.121094 459.296875 344.675781 L 459.082031 342.726562 C 458.972656 341.757812 458.09375 340.933594 457.15625 340.933594 Z M 439.601562 348.742188 C 437.445312 348.742188 435.574219 347.035156 435.332031 344.847656 L 435.125 342.898438 C 435 341.796875 435.332031 340.714844 436.035156 339.925781 C 436.734375 339.144531 437.703125 338.710938 438.773438 338.707031 L 457.128906 338.574219 C 457.140625 338.574219 457.148438 338.574219 457.15625 338.574219 C 459.320312 338.574219 461.1875 340.28125 461.429688 342.46875 L 461.644531 344.417969 C 461.765625 345.519531 461.429688 346.601562 460.726562 347.394531 C 460.035156 348.171875 459.066406 348.605469 457.992188 348.609375 L 439.632812 348.742188 C 439.625 348.742188 439.613281 348.742188 439.601562 348.742188 " fill-opacity="1" fill-rule="nonzero"/><path fill="#ffffff" d="M 436.941406 377.097656 L 466.851562 376.890625 L 436.941406 377.097656 " fill-opacity="1" fill-rule="nonzero"/><path fill="#1d1d1f" d="M 436.941406 378.28125 C 436.292969 378.28125 435.765625 377.757812 435.761719 377.113281 C 435.757812 376.457031 436.28125 375.925781 436.929688 375.917969 L 466.839844 375.710938 C 466.84375 375.710938 466.851562 375.710938 466.851562 375.710938 C 467.5 375.710938 468.023438 376.230469 468.03125 376.878906 C 468.035156 377.535156 467.507812 378.066406 466.863281 378.070312 L 436.945312 378.28125 L 436.941406 378.28125 " fill-opacity="1" fill-rule="nonzero"/><path fill="#1d1d1f" d="M 837.300781 449.074219 C 837.265625 449.074219 837.230469 449.074219 837.199219 449.074219 L 476.109375 451.605469 C 472.296875 451.632812 468.863281 453.148438 466.4375 455.875 C 463.910156 458.722656 462.753906 462.53125 463.203125 466.617188 L 473.53125 560.59375 C 474.445312 568.945312 481.828125 575.664062 489.976562 575.640625 L 851.066406 573.109375 C 854.875 573.082031 858.304688 571.566406 860.730469 568.839844 C 863.265625 565.992188 864.417969 562.179688 863.96875 558.097656 L 853.640625 464.121094 C 852.730469 455.796875 845.410156 449.074219 837.300781 449.074219 Z M 489.871094 577.996094 C 480.597656 577.996094 472.226562 570.339844 471.179688 560.855469 L 460.855469 466.875 C 460.335938 462.125 461.695312 457.65625 464.675781 454.304688 C 467.550781 451.078125 471.605469 449.277344 476.09375 449.246094 L 837.183594 446.710938 C 837.222656 446.710938 837.257812 446.710938 837.296875 446.710938 C 846.578125 446.710938 854.953125 454.375 855.992188 463.859375 L 866.3125 557.839844 C 866.835938 562.59375 865.480469 567.058594 862.5 570.410156 C 859.617188 573.636719 855.566406 575.4375 851.085938 575.464844 L 489.992188 577.996094 C 489.957031 577.996094 489.914062 577.996094 489.871094 577.996094 " fill-opacity="1" fill-rule="nonzero"/><path fill="#1d1d1f" d="M 505.988281 494.066406 C 505.339844 494.066406 504.816406 493.546875 504.808594 492.898438 C 504.804688 492.242188 505.328125 491.710938 505.984375 491.707031 L 706.113281 490.300781 C 706.769531 490.285156 707.300781 490.820312 707.304688 491.476562 C 707.308594 492.125 706.785156 492.660156 706.128906 492.660156 L 506 494.066406 C 505.996094 494.066406 505.996094 494.066406 505.988281 494.066406 " fill-opacity="1" fill-rule="nonzero"/><path fill="#1d1d1f" d="M 678.523438 513.433594 C 677.871094 513.433594 677.347656 512.914062 677.34375 512.261719 C 677.335938 511.609375 677.863281 511.078125 678.511719 511.074219 L 693.441406 510.96875 C 693.449219 510.96875 693.449219 510.96875 693.453125 510.96875 C 694.101562 510.96875 694.628906 511.488281 694.632812 512.140625 C 694.636719 512.796875 694.113281 513.324219 693.457031 513.332031 L 678.527344 513.433594 L 678.523438 513.433594 " fill-opacity="1" fill-rule="nonzero"/><path fill="#1d1d1f" d="M 590.714844 514.050781 C 590.0625 514.050781 589.539062 513.527344 589.535156 512.878906 C 589.527344 512.226562 590.054688 511.695312 590.710938 511.6875 L 663.574219 511.179688 C 663.582031 511.179688 663.582031 511.179688 663.585938 511.179688 C 664.234375 511.179688 664.761719 511.699219 664.765625 512.347656 C 664.769531 513.003906 664.246094 513.535156 663.589844 513.539062 L 590.722656 514.050781 C 590.71875 514.050781 590.71875 514.050781 590.714844 514.050781 " fill-opacity="1" fill-rule="nonzero"/><path fill="#1d1d1f" d="M 508.253906 514.628906 C 507.605469 514.628906 507.070312 514.109375 507.070312 513.460938 C 507.066406 512.804688 507.59375 512.273438 508.242188 512.269531 L 535.929688 512.074219 L 535.9375 512.074219 C 536.585938 512.074219 537.109375 512.597656 537.117188 513.246094 C 537.121094 513.898438 536.59375 514.429688 535.945312 514.433594 L 508.257812 514.628906 L 508.253906 514.628906 " fill-opacity="1" fill-rule="nonzero"/><path fill="#1d1d1f" d="M 625.113281 534.386719 C 624.460938 534.386719 623.933594 533.867188 623.925781 533.214844 C 623.925781 532.5625 624.449219 532.03125 625.101562 532.027344 L 669.796875 531.714844 L 669.800781 531.714844 C 670.449219 531.714844 670.980469 532.234375 670.980469 532.882812 C 670.988281 533.539062 670.460938 534.070312 669.8125 534.074219 L 625.117188 534.386719 L 625.113281 534.386719 " fill-opacity="1" fill-rule="nonzero"/><path fill="#1d1d1f" d="M 510.511719 535.191406 C 509.863281 535.191406 509.335938 534.671875 509.332031 534.019531 C 509.324219 533.367188 509.851562 532.835938 510.5 532.832031 L 573.78125 532.382812 C 573.78125 532.382812 573.789062 532.382812 573.792969 532.382812 C 574.4375 532.382812 574.96875 532.910156 574.972656 533.558594 C 574.980469 534.210938 574.453125 534.746094 573.800781 534.75 L 510.515625 535.191406 L 510.511719 535.191406 " fill-opacity="1" fill-rule="nonzero"/><path fill="#1d1d1f" d="M 784.523438 469.644531 C 784.429688 469.644531 784.332031 469.644531 784.238281 469.644531 C 773.566406 469.71875 763.945312 473.972656 757.136719 481.621094 C 750.039062 489.589844 746.816406 500.261719 748.070312 511.648438 C 750.601562 534.6875 770.902344 553.320312 793.386719 553.320312 C 793.484375 553.320312 793.574219 553.320312 793.675781 553.320312 C 804.34375 553.242188 813.964844 548.988281 820.773438 541.339844 C 827.867188 533.367188 831.089844 522.703125 829.839844 511.3125 C 827.308594 488.277344 807.011719 469.644531 784.523438 469.644531 Z M 793.386719 555.679688 C 769.730469 555.683594 748.382812 536.105469 745.722656 511.902344 C 744.402344 499.839844 747.824219 488.53125 755.382812 480.050781 C 762.628906 471.898438 772.875 467.363281 784.21875 467.289062 C 784.324219 467.28125 784.425781 467.28125 784.523438 467.28125 C 808.183594 467.28125 829.523438 486.851562 832.1875 511.054688 C 833.511719 523.117188 830.082031 534.425781 822.53125 542.914062 C 815.28125 551.066406 805.039062 555.597656 793.695312 555.679688 C 793.589844 555.679688 793.492188 555.679688 793.386719 555.679688 " fill-opacity="1" fill-rule="nonzero"/><path fill="#ffffff" d="M 972.5 360.554688 L 611.414062 363.089844 C 602.660156 363.148438 594.769531 355.945312 593.785156 346.988281 L 583.464844 253.015625 C 582.476562 244.058594 588.773438 236.753906 597.527344 236.695312 L 958.613281 234.160156 C 967.367188 234.101562 975.265625 241.300781 976.242188 250.257812 L 986.5625 344.234375 C 987.546875 353.191406 981.253906 360.492188 972.5 360.554688 " fill-opacity="1" fill-rule="nonzero"/><path fill="#1d1d1f" d="M 627.425781 280.324219 C 626.78125 280.324219 626.253906 279.800781 626.246094 279.15625 C 626.242188 278.503906 626.765625 277.96875 627.421875 277.964844 L 827.554688 276.5625 C 827.558594 276.5625 827.558594 276.5625 827.566406 276.5625 C 828.207031 276.5625 828.738281 277.082031 828.742188 277.734375 C 828.75 278.386719 828.222656 278.921875 827.566406 278.921875 L 627.4375 280.324219 C 627.433594 280.324219 627.433594 280.324219 627.425781 280.324219 " fill-opacity="1" fill-rule="nonzero"/><path fill="#1d1d1f" d="M 799.949219 299.699219 C 799.300781 299.699219 798.777344 299.175781 798.773438 298.527344 C 798.769531 297.878906 799.289062 297.34375 799.9375 297.339844 L 814.871094 297.234375 C 814.875 297.234375 814.875 297.234375 814.882812 297.234375 C 815.527344 297.234375 816.058594 297.757812 816.0625 298.40625 C 816.070312 299.0625 815.542969 299.589844 814.886719 299.59375 L 799.957031 299.699219 L 799.949219 299.699219 " fill-opacity="1" fill-rule="nonzero"/><path fill="#1d1d1f" d="M 712.148438 300.3125 C 711.492188 300.3125 710.96875 299.792969 710.964844 299.144531 C 710.960938 298.496094 711.488281 297.960938 712.140625 297.957031 L 785.007812 297.445312 C 785.007812 297.445312 785.011719 297.445312 785.019531 297.445312 C 785.660156 297.445312 786.191406 297.96875 786.195312 298.613281 C 786.199219 299.269531 785.671875 299.800781 785.019531 299.804688 L 712.152344 300.3125 C 712.148438 300.3125 712.148438 300.3125 712.148438 300.3125 " fill-opacity="1" fill-rule="nonzero"/><path fill="#1d1d1f" d="M 629.683594 300.894531 C 629.035156 300.894531 628.503906 300.367188 628.503906 299.71875 C 628.503906 299.070312 629.023438 298.539062 629.671875 298.53125 L 657.359375 298.335938 L 657.367188 298.335938 C 658.019531 298.335938 658.542969 298.859375 658.550781 299.503906 C 658.554688 300.160156 658.027344 300.695312 657.378906 300.699219 L 629.6875 300.894531 L 629.683594 300.894531 " fill-opacity="1" fill-rule="nonzero"/><path fill="#1d1d1f" d="M 746.546875 320.644531 C 745.902344 320.644531 745.367188 320.121094 745.363281 319.472656 C 745.363281 318.824219 745.886719 318.289062 746.542969 318.285156 L 791.238281 317.96875 L 791.242188 317.96875 C 791.886719 317.96875 792.421875 318.492188 792.421875 319.144531 C 792.425781 319.792969 791.898438 320.328125 791.253906 320.332031 L 746.554688 320.644531 L 746.546875 320.644531 " fill-opacity="1" fill-rule="nonzero"/><path fill="#1d1d1f" d="M 631.949219 321.449219 C 631.296875 321.449219 630.769531 320.925781 630.769531 320.277344 C 630.765625 319.625 631.285156 319.09375 631.9375 319.085938 L 695.21875 318.644531 C 695.21875 318.644531 695.226562 318.644531 695.230469 318.644531 C 695.875 318.644531 696.402344 319.167969 696.410156 319.816406 C 696.414062 320.46875 695.886719 321 695.238281 321.003906 L 631.953125 321.449219 L 631.949219 321.449219 " fill-opacity="1" fill-rule="nonzero"/><path fill="#1d1d1f" d="M 952.445312 297.449219 C 955.058594 321.207031 938.339844 340.601562 915.113281 340.765625 C 891.890625 340.921875 870.9375 321.796875 868.332031 298.035156 C 865.71875 274.28125 882.4375 254.886719 905.664062 254.730469 C 928.894531 254.566406 949.832031 273.691406 952.445312 297.449219 " fill-opacity="1" fill-rule="nonzero"/><path fill="#ffffff" d="M 892.722656 292.550781 L 898.957031 292.550781 L 894.347656 282.738281 Z M 901.421875 297.816406 L 891.839844 297.816406 L 890.960938 303.101562 L 883.492188 303.101562 L 889.871094 274.8125 L 896.441406 274.8125 L 911.417969 303.101562 L 903.910156 303.101562 L 901.421875 297.816406 " fill-opacity="1" fill-rule="nonzero"/><path fill="#ffffff" d="M 915.171875 297.480469 C 916.140625 297.480469 916.996094 297.765625 917.714844 298.328125 C 918.441406 298.886719 918.871094 299.605469 919.003906 300.484375 C 919.136719 301.355469 918.921875 302.074219 918.367188 302.632812 C 917.808594 303.195312 917.042969 303.480469 916.074219 303.480469 C 915.09375 303.480469 914.238281 303.195312 913.519531 302.625 C 912.796875 302.058594 912.375 301.34375 912.242188 300.484375 C 912.109375 299.617188 912.324219 298.90625 912.875 298.335938 C 913.425781 297.765625 914.1875 297.480469 915.171875 297.480469 " fill-opacity="1" fill-rule="nonzero"/><path fill="#ffffff" d="M 923.480469 297.488281 C 924.449219 297.488281 925.292969 297.769531 926.019531 298.328125 C 926.746094 298.890625 927.179688 299.609375 927.308594 300.480469 C 927.441406 301.363281 927.222656 302.074219 926.671875 302.636719 C 926.109375 303.195312 925.351562 303.476562 924.375 303.476562 C 923.394531 303.476562 922.550781 303.195312 921.824219 302.628906 C 921.109375 302.0625 920.675781 301.347656 920.550781 300.480469 C 920.421875 299.621094 920.632812 298.910156 921.179688 298.339844 C 921.726562 297.773438 922.496094 297.488281 923.480469 297.488281 " fill-opacity="1" fill-rule="nonzero"/><path fill="#ffffff" d="M 931.792969 297.484375 C 932.761719 297.484375 933.609375 297.761719 934.34375 298.324219 C 935.0625 298.882812 935.488281 299.605469 935.625 300.476562 C 935.753906 301.347656 935.542969 302.066406 934.988281 302.632812 C 934.433594 303.191406 933.660156 303.476562 932.699219 303.476562 C 931.714844 303.476562 930.863281 303.191406 930.140625 302.621094 C 929.421875 302.054688 929 301.34375 928.863281 300.476562 C 928.734375 299.617188 928.941406 298.894531 929.496094 298.332031 C 930.046875 297.765625 930.816406 297.484375 931.792969 297.484375 " fill-opacity="1" fill-rule="nonzero"/><path fill="#ffffff" d="M 927.453125 317.371094 L 934.464844 317.371094 L 935.011719 320.976562 L 921.9375 320.976562 L 921.542969 318.371094 L 927.050781 309.574219 L 920.519531 309.574219 L 919.972656 305.964844 L 932.59375 305.964844 L 932.96875 308.492188 L 927.453125 317.371094 " fill-opacity="1" fill-rule="nonzero"/><path fill="#1d1d1f" d="M 611.304688 364.265625 C 602.027344 364.265625 593.660156 356.601562 592.613281 347.113281 L 582.289062 253.136719 C 581.773438 248.382812 583.125 243.917969 586.113281 240.570312 C 588.980469 237.339844 593.039062 235.539062 597.523438 235.511719 L 958.609375 232.976562 C 958.652344 232.976562 958.691406 232.976562 958.726562 232.976562 C 968.007812 232.976562 976.386719 240.644531 977.421875 250.121094 L 987.746094 344.105469 C 988.265625 348.859375 986.910156 353.320312 983.929688 356.671875 C 981.050781 359.902344 977 361.703125 972.511719 361.730469 L 668.796875 363.859375 C 668.789062 363.859375 668.789062 363.859375 668.78125 363.859375 C 668.132812 363.859375 667.605469 363.339844 667.601562 362.6875 C 667.59375 362.039062 668.121094 361.507812 668.773438 361.503906 L 972.5 359.371094 C 976.304688 359.34375 979.738281 357.835938 982.164062 355.109375 C 984.699219 352.257812 985.84375 348.441406 985.394531 344.363281 L 975.070312 250.386719 C 974.160156 242.066406 966.84375 235.335938 958.730469 235.335938 C 958.691406 235.335938 958.664062 235.335938 958.628906 235.335938 L 597.542969 237.871094 C 593.726562 237.898438 590.292969 239.410156 587.871094 242.132812 C 585.339844 244.984375 584.1875 248.800781 584.636719 252.882812 L 594.960938 346.855469 C 595.871094 355.179688 603.191406 361.90625 611.304688 361.90625 C 611.339844 361.90625 611.375 361.90625 611.40625 361.90625 L 631.390625 361.765625 C 631.398438 361.765625 631.398438 361.765625 631.40625 361.765625 C 632.046875 361.765625 632.578125 362.289062 632.578125 362.9375 C 632.578125 363.59375 632.0625 364.125 631.40625 364.125 L 611.425781 364.265625 C 611.386719 364.265625 611.347656 364.265625 611.304688 364.265625 " fill-opacity="1" fill-rule="nonzero"/><path fill="#ffffff" d="M 911.332031 925.699219 C 912.046875 926.824219 939.609375 966.226562 939.609375 966.226562 C 939.609375 966.226562 938.914062 976.265625 931.765625 978.222656 L 899.003906 942.765625 L 911.332031 925.699219 " fill-opacity="1" fill-rule="nonzero"/><path fill="#1d1d1f" d="M 900.523438 942.671875 L 932.125 976.867188 C 937.066406 974.984375 938.1875 968.261719 938.386719 966.542969 C 935.769531 962.789062 915.972656 934.488281 911.304688 927.753906 Z M 931.765625 979.40625 C 931.445312 979.40625 931.128906 979.269531 930.90625 979.023438 L 898.136719 943.5625 C 897.753906 943.152344 897.714844 942.527344 898.046875 942.070312 L 910.375 925.007812 C 910.601562 924.691406 910.972656 924.515625 911.359375 924.519531 C 911.753906 924.535156 912.117188 924.734375 912.324219 925.066406 C 912.890625 925.941406 931.050781 951.929688 940.574219 965.550781 C 940.730469 965.773438 940.808594 966.039062 940.789062 966.308594 C 940.761719 966.753906 939.941406 977.210938 932.082031 979.363281 C 931.980469 979.390625 931.878906 979.40625 931.765625 979.40625 " fill-opacity="1" fill-rule="nonzero"/><path fill="#ffffff" d="M 954.617188 973.152344 C 954.617188 973.152344 952.273438 1004.261719 938.53125 1020.636719 C 924.792969 1037.007812 902.746094 1031.773438 902.746094 1031.773438 C 902.746094 1031.773438 901.074219 1017.925781 903.941406 1014.328125 C 906.796875 1010.722656 922.609375 991.484375 922.566406 974.179688 L 930.964844 962.742188 L 935.917969 969.160156 L 938.042969 958.675781 L 954.617188 973.152344 " fill-opacity="1" fill-rule="nonzero"/><path fill="#1d1d1f" d="M 903.828125 1030.789062 C 907.84375 1031.492188 925.984375 1033.761719 937.628906 1019.878906 C 949.941406 1005.207031 952.976562 977.972656 953.390625 973.644531 L 938.792969 960.902344 L 937.078125 969.390625 C 936.984375 969.847656 936.636719 970.203125 936.1875 970.308594 C 935.734375 970.417969 935.269531 970.246094 934.984375 969.878906 L 930.984375 964.707031 L 923.738281 974.566406 C 923.65625 982.457031 920.296875 995.71875 905.167969 1014.675781 L 904.863281 1015.0625 C 903.101562 1017.28125 903.273438 1025.527344 903.828125 1030.789062 Z M 910.875 1033.714844 C 905.941406 1033.714844 902.558594 1032.941406 902.472656 1032.921875 C 901.988281 1032.808594 901.636719 1032.410156 901.578125 1031.917969 C 901.398438 1030.449219 899.941406 1017.464844 903.011719 1013.59375 L 903.324219 1013.203125 C 918.28125 994.460938 921.398438 981.644531 921.386719 974.183594 C 921.386719 973.929688 921.460938 973.683594 921.605469 973.484375 L 930.011719 962.046875 C 930.226562 961.746094 930.578125 961.566406 930.945312 961.5625 C 931.34375 961.589844 931.671875 961.730469 931.894531 962.019531 L 935.277344 966.394531 L 936.882812 958.441406 C 936.964844 958.027344 937.265625 957.695312 937.660156 957.558594 C 938.066406 957.425781 938.503906 957.507812 938.816406 957.785156 L 955.394531 972.269531 C 955.675781 972.507812 955.824219 972.875 955.796875 973.242188 C 955.703125 974.53125 953.257812 1004.921875 939.433594 1021.398438 C 930.773438 1031.722656 918.820312 1033.714844 910.875 1033.714844 " fill-opacity="1" fill-rule="nonzero"/><path fill="#ffffff" d="M 949.074219 974.347656 C 949.074219 974.347656 945.515625 1026.035156 907.15625 1024.921875 L 949.074219 974.347656 " fill-opacity="1" fill-rule="nonzero"/><path fill="#1d1d1f" d="M 908.371094 1026.117188 C 907.953125 1026.117188 907.542969 1026.113281 907.121094 1026.101562 C 906.46875 1026.082031 905.953125 1025.539062 905.976562 1024.886719 C 905.992188 1024.234375 906.539062 1023.757812 907.1875 1023.738281 C 943.984375 1024.867188 947.863281 974.777344 947.898438 974.269531 C 947.945312 973.621094 948.496094 973.136719 949.160156 973.171875 C 949.808594 973.21875 950.300781 973.777344 950.253906 974.429688 C 950.222656 974.953125 946.246094 1026.117188 908.371094 1026.117188 " fill-opacity="1" fill-rule="nonzero"/><path fill="#ffffff" d="M 897.433594 959.519531 C 897.589844 961.203125 895.851562 984.816406 888.523438 999.648438 C 888.523438 999.648438 891.910156 1010.519531 902.265625 1008.570312 C 902.265625 1008.570312 918.167969 978.285156 921.503906 958.679688 L 897.433594 959.519531 " fill-opacity="1" fill-rule="nonzero"/><path fill="#1d1d1f" d="M 889.800781 999.71875 C 890.507812 1001.574219 893.707031 1008.605469 901.488281 1007.503906 C 903.53125 1003.53125 916.59375 977.699219 920.078125 959.910156 L 898.609375 960.65625 C 898.394531 966.132812 896.25 986.308594 889.800781 999.71875 Z M 899.832031 1009.984375 C 890.621094 1009.984375 887.429688 1000.105469 887.398438 999.996094 C 887.308594 999.707031 887.335938 999.394531 887.46875 999.117188 C 894.847656 984.171875 896.363281 960.828125 896.257812 959.628906 C 896.230469 959.304688 896.332031 958.984375 896.546875 958.738281 C 896.761719 958.496094 897.066406 958.34375 897.390625 958.339844 L 921.46875 957.496094 C 921.828125 957.460938 922.15625 957.632812 922.398438 957.898438 C 922.628906 958.167969 922.730469 958.527344 922.671875 958.875 C 919.335938 978.441406 903.960938 1007.878906 903.308594 1009.121094 C 903.136719 1009.4375 902.832031 1009.664062 902.476562 1009.726562 C 901.550781 1009.90625 900.664062 1009.984375 899.832031 1009.984375 " fill-opacity="1" fill-rule="nonzero"/><path fill="#ffffff" d="M 908.035156 997.242188 C 908.035156 997.242188 910.675781 1028.21875 906.785156 1036.988281 C 906.785156 1036.988281 877.304688 1052.152344 843.085938 1052.113281 C 840.65625 1052.105469 838.667969 1050.140625 838.6875 1047.710938 C 838.738281 1041.855469 840.277344 1031.160156 849.644531 1022.683594 C 863.246094 1010.371094 892.460938 990.144531 892.460938 990.144531 L 898.355469 997.285156 L 895.886719 1008.570312 L 908.035156 997.242188 " fill-opacity="1" fill-rule="nonzero"/><g clip-path="url(#e11c3a4fe0)"><path fill="#1d1d1f" d="M 892.242188 991.738281 C 887.25 995.230469 862.503906 1012.640625 850.433594 1023.5625 C 841.347656 1031.777344 839.917969 1042.226562 839.867188 1047.722656 C 839.867188 1048.566406 840.1875 1049.363281 840.789062 1049.96875 C 841.429688 1050.621094 842.316406 1050.941406 843.230469 1050.929688 C 874.644531 1050.929688 902.324219 1037.867188 905.863281 1036.128906 C 908.769531 1028.738281 907.558594 1007.085938 907.042969 999.777344 L 896.691406 1009.433594 C 896.316406 1009.785156 895.75 1009.847656 895.304688 1009.597656 C 894.851562 1009.339844 894.621094 1008.820312 894.734375 1008.316406 L 897.078125 997.589844 Z M 843.230469 1053.289062 C 841.683594 1053.3125 840.199219 1052.730469 839.109375 1051.632812 C 838.066406 1050.574219 837.503906 1049.175781 837.507812 1047.703125 C 837.558594 1041.820312 839.097656 1030.632812 848.847656 1021.808594 C 862.359375 1009.585938 891.503906 989.378906 891.792969 989.175781 C 892.292969 988.828125 892.984375 988.921875 893.371094 989.394531 L 899.265625 996.535156 C 899.496094 996.8125 899.589844 997.183594 899.515625 997.535156 L 897.851562 1005.125 L 907.238281 996.378906 C 907.566406 996.066406 908.039062 995.976562 908.460938 996.136719 C 908.882812 996.304688 909.179688 996.6875 909.214844 997.140625 C 909.320312 998.417969 911.835938 1028.523438 907.867188 1037.46875 C 907.753906 1037.714844 907.566406 1037.914062 907.324219 1038.039062 C 907.023438 1038.191406 877.28125 1053.289062 843.230469 1053.289062 " fill-opacity="1" fill-rule="nonzero"/></g><path fill="#ffffff" d="M 904.492188 1027.832031 C 904.492188 1027.832031 876.464844 1045.535156 842.921875 1043.507812 L 904.492188 1027.832031 " fill-opacity="1" fill-rule="nonzero"/><path fill="#1d1d1f" d="M 848.238281 1044.847656 C 846.460938 1044.847656 844.664062 1044.796875 842.851562 1044.6875 C 842.203125 1044.644531 841.703125 1044.089844 841.742188 1043.4375 C 841.785156 1042.785156 842.347656 1042.308594 842.992188 1042.328125 C 875.78125 1044.320312 903.589844 1027.007812 903.871094 1026.835938 C 904.414062 1026.488281 905.140625 1026.644531 905.492188 1027.199219 C 905.839844 1027.75 905.671875 1028.480469 905.128906 1028.832031 C 904.859375 1028.996094 879.375 1044.847656 848.238281 1044.847656 " fill-opacity="1" fill-rule="nonzero"/><path fill="#ffffff" d="M 885.171875 857.5625 C 882.449219 837.089844 884.523438 808.691406 887.730469 783.175781 C 894.234375 820.410156 895.871094 860.925781 895.6875 894.355469 C 890.941406 883.445312 886.96875 871.011719 885.171875 857.5625 Z M 949.128906 650.667969 L 862.230469 646.941406 L 862.875 652.785156 L 849.636719 650.667969 C 849.636719 650.667969 817.203125 746.074219 817.050781 808.90625 C 816.925781 857.492188 870.03125 918.320312 894.128906 943.410156 C 893.300781 957.636719 892.457031 966.226562 892.457031 966.226562 L 921.503906 970.398438 C 969.664062 788.367188 949.128906 650.667969 949.128906 650.667969 " fill-opacity="1" fill-rule="nonzero"/><path fill="#1d1d1f" d="M 886.347656 857.402344 C 887.707031 867.609375 890.453125 878.023438 894.527344 888.441406 C 894.488281 852.269531 892.273438 819.761719 887.921875 791.582031 C 884.769531 819.503906 884.238281 841.621094 886.347656 857.402344 Z M 895.6875 895.535156 C 895.230469 895.535156 894.796875 895.265625 894.605469 894.828125 C 889.199219 882.40625 885.632812 869.914062 884 857.714844 C 881.671875 840.203125 882.535156 815.078125 886.566406 783.03125 C 886.632812 782.449219 887.125 782.011719 887.707031 781.996094 C 888.296875 782.007812 888.792969 782.398438 888.902344 782.976562 C 894.417969 814.601562 897.105469 852.078125 896.867188 894.359375 C 896.867188 894.917969 896.46875 895.398438 895.933594 895.511719 C 895.847656 895.53125 895.765625 895.535156 895.6875 895.535156 Z M 893.738281 965.222656 L 920.632812 969.078125 C 965.761719 797.734375 949.769531 664.394531 948.09375 651.804688 L 863.550781 648.179688 L 864.050781 652.65625 C 864.089844 653.027344 863.957031 653.390625 863.691406 653.640625 C 863.417969 653.894531 863.046875 654.011719 862.691406 653.953125 L 850.4375 651.992188 C 847.089844 662.085938 818.375 750.308594 818.230469 808.910156 C 818.109375 857.300781 871.871094 918.515625 894.976562 942.589844 C 895.210938 942.824219 895.328125 943.148438 895.308594 943.472656 C 894.660156 954.660156 893.988281 962.441406 893.738281 965.222656 Z M 921.507812 971.578125 C 921.449219 971.578125 921.394531 971.570312 921.335938 971.5625 L 892.289062 967.398438 C 891.667969 967.308594 891.222656 966.742188 891.285156 966.117188 C 891.289062 966.03125 892.121094 957.589844 892.921875 943.855469 C 869.414062 919.320312 815.742188 857.910156 815.867188 808.90625 C 816.027344 746.601562 848.195312 651.246094 848.523438 650.285156 C 848.699219 649.742188 849.257812 649.40625 849.820312 649.503906 L 861.527344 651.375 L 861.058594 647.070312 C 861.023438 646.726562 861.136719 646.386719 861.371094 646.132812 C 861.605469 645.882812 861.933594 645.746094 862.285156 645.757812 L 949.1875 649.488281 C 949.742188 649.511719 950.214844 649.933594 950.300781 650.496094 C 950.5 651.875 970.316406 790.519531 922.648438 970.695312 C 922.511719 971.21875 922.039062 971.578125 921.507812 971.578125 " fill-opacity="1" fill-rule="nonzero"/><path fill="#1d1d1f" d="M 888.804688 806.832031 C 888.804688 806.832031 888.804688 806.832031 888.796875 806.832031 C 888.148438 806.832031 887.625 806.300781 887.625 805.644531 C 887.746094 784.933594 881.871094 745.367188 873.515625 733.144531 C 873.144531 732.609375 873.28125 731.871094 873.828125 731.5 C 874.359375 731.136719 875.089844 731.269531 875.460938 731.8125 C 884.375 744.84375 890.105469 784.890625 889.988281 805.65625 C 889.980469 806.304688 889.449219 806.832031 888.804688 806.832031 " fill-opacity="1" fill-rule="nonzero"/><path fill="#1d1d1f" d="M 894.511719 926.886719 C 894.472656 926.886719 894.414062 926.878906 894.359375 926.875 C 893.714844 926.789062 893.261719 926.191406 893.351562 925.550781 C 895.78125 907.117188 894.539062 875.503906 894.527344 875.1875 C 894.5 874.53125 895.003906 873.984375 895.660156 873.957031 C 896.300781 873.902344 896.859375 874.4375 896.886719 875.089844 C 896.898438 875.410156 898.148438 907.230469 895.683594 925.855469 C 895.601562 926.449219 895.101562 926.886719 894.511719 926.886719 " fill-opacity="1" fill-rule="nonzero"/><path fill="#1d1d1f" d="M 939.808594 439.378906 C 943.695312 447.191406 938.171875 449.949219 940.875 465.121094 C 942.851562 476.269531 946.855469 480.53125 944.203125 486.082031 C 941.800781 491.078125 936.039062 492.875 932.222656 494.0625 C 914.929688 499.453125 898.261719 490.679688 888.035156 485.300781 C 879.753906 480.949219 868.402344 474.972656 869.164062 468.917969 C 869.917969 462.933594 881.625 463.765625 887.128906 453.746094 C 891.550781 445.6875 886.464844 440.625 891.125 433.8125 C 897.152344 424.988281 911.210938 425.351562 913.464844 425.410156 C 922.515625 425.648438 935.019531 429.761719 939.808594 439.378906 " fill-opacity="1" fill-rule="nonzero"/><path fill="#ffffff" d="M 843.164062 485.5625 L 888.652344 496.949219 C 889.480469 497.132812 890.320312 496.667969 890.597656 495.867188 C 893.691406 487.15625 888.875 477.402344 887.488281 474.871094 C 887.265625 474.476562 886.886719 474.1875 886.445312 474.070312 C 884.195312 473.46875 882.160156 472.660156 880.324219 471.6875 C 878.070312 470.492188 877.148438 467.730469 878.175781 465.390625 C 879.835938 461.632812 881.648438 456.554688 882.671875 454.46875 C 882.925781 453.964844 882.910156 453.363281 882.59375 452.890625 C 881.824219 451.742188 880.621094 450.863281 880.761719 449.144531 C 880.816406 448.492188 881.265625 447.914062 881.898438 447.726562 C 887.605469 446.039062 892.035156 437.460938 895.84375 434.855469 C 897.65625 433.613281 898.890625 433.277344 900.933594 432.167969 C 901.277344 431.980469 901.6875 431.894531 902.0625 431.980469 C 911.769531 434.089844 896.898438 446.136719 909.621094 453.199219 C 910.25 453.558594 910.628906 454.277344 910.484375 454.980469 C 910.265625 456.035156 910.3125 457.453125 910.4375 458.75 C 910.4375 458.761719 910.4375 458.777344 910.445312 458.789062 C 910.574219 460.097656 912.125 460.738281 913.144531 459.90625 C 915.066406 458.339844 917.035156 457.890625 918.195312 458.566406 C 919.84375 459.527344 919.742188 462.710938 919.160156 464.621094 C 917.996094 468.414062 914.03125 470.175781 911.777344 470.878906 C 910.910156 471.148438 910.425781 472.054688 910.679688 472.921875 C 912.179688 478.140625 916.730469 494.476562 917.082031 501.902344 C 917.117188 502.660156 917.648438 503.296875 918.390625 503.464844 L 927.070312 505.367188 C 940.144531 508.226562 955.652344 516.132812 965.648438 525.019531 L 978.550781 535.847656 C 979.550781 536.734375 984.089844 539.417969 983.148438 540.371094 C 956.117188 567.859375 903.042969 550.667969 883.390625 541.949219 C 864.332031 533.503906 845.34375 494.0625 838.324219 501.933594 C 833.714844 507.105469 841.890625 485.28125 843.164062 485.5625 " fill-opacity="1" fill-rule="nonzero"/><path fill="#1d1d1f" d="M 840.507812 499.714844 C 840.539062 499.714844 840.574219 499.714844 840.605469 499.714844 C 844.96875 499.832031 850.625 506.84375 857.789062 515.730469 C 865.765625 525.628906 874.800781 536.855469 883.867188 540.875 C 890.761719 543.925781 951.824219 569.757812 981.902344 539.941406 C 981.316406 539.300781 979.832031 538.25 979.132812 537.757812 C 978.542969 537.328125 978.070312 536.996094 977.769531 536.730469 L 964.894531 525.929688 C 955.003906 517.132812 939.714844 509.347656 926.820312 506.515625 L 918.136719 504.617188 C 916.882812 504.347656 915.960938 503.246094 915.902344 501.953125 C 915.558594 494.625 910.949219 478.132812 909.542969 473.246094 C 909.113281 471.753906 909.941406 470.21875 911.425781 469.753906 C 913.460938 469.117188 917.03125 467.554688 918.023438 464.277344 C 918.5625 462.535156 918.492188 460.105469 917.601562 459.585938 C 916.96875 459.21875 915.492188 459.519531 913.890625 460.824219 C 913.078125 461.480469 911.976562 461.644531 911.003906 461.238281 C 910.042969 460.84375 909.378906 459.941406 909.277344 458.90625 C 909.09375 457.152344 909.121094 455.761719 909.328125 454.742188 C 909.363281 454.566406 909.242188 454.34375 909.039062 454.238281 C 901.359375 449.96875 902.773438 443.871094 903.796875 439.414062 C 904.28125 437.34375 904.734375 435.390625 904.070312 434.347656 C 903.710938 433.785156 902.972656 433.386719 901.816406 433.136719 C 901.738281 433.109375 901.609375 433.136719 901.5 433.203125 C 900.6875 433.648438 899.996094 433.972656 899.351562 434.28125 C 898.382812 434.730469 897.542969 435.125 896.507812 435.824219 C 895.191406 436.734375 893.671875 438.5625 892.066406 440.503906 C 889.277344 443.882812 886.105469 447.710938 882.234375 448.863281 C 882.074219 448.902344 881.953125 449.070312 881.941406 449.238281 C 881.871094 450.03125 882.234375 450.535156 882.902344 451.339844 C 883.136719 451.628906 883.371094 451.917969 883.582031 452.234375 C 884.117188 453.027344 884.175781 454.089844 883.734375 454.996094 C 883.214844 456.03125 882.464844 457.949219 881.664062 459.980469 C 880.910156 461.882812 880.066406 464.042969 879.257812 465.867188 C 878.472656 467.648438 879.183594 469.746094 880.882812 470.648438 C 882.664062 471.59375 884.648438 472.359375 886.753906 472.925781 C 887.523438 473.140625 888.144531 473.625 888.519531 474.304688 C 890.085938 477.152344 894.949219 487.152344 891.71875 496.261719 C 891.234375 497.621094 889.808594 498.414062 888.40625 498.101562 L 843.488281 486.855469 C 842.261719 488.75 839.203125 496.617188 838.335938 500.367188 C 838.988281 499.9375 839.71875 499.714844 840.507812 499.714844 Z M 941.550781 556.492188 C 914.457031 556.492188 887.402344 545.019531 882.90625 543.023438 C 873.332031 538.777344 864.089844 527.320312 855.949219 517.207031 C 849.710938 509.472656 843.824219 502.164062 840.546875 502.074219 C 840.042969 502.074219 839.613281 502.265625 839.210938 502.714844 C 838.832031 503.136719 837.691406 504.421875 836.507812 503.6875 C 835.921875 503.324219 834.359375 502.351562 839.140625 490.589844 C 841.621094 484.492188 842.414062 484.179688 843.421875 484.410156 C 843.433594 484.410156 843.449219 484.414062 843.457031 484.414062 L 888.941406 495.804688 C 889.15625 495.851562 889.40625 495.710938 889.484375 495.476562 C 892.390625 487.292969 887.894531 478.070312 886.449219 475.4375 C 886.386719 475.332031 886.273438 475.242188 886.140625 475.210938 C 883.855469 474.597656 881.71875 473.757812 879.777344 472.738281 C 876.992188 471.257812 875.820312 467.824219 877.101562 464.914062 C 877.878906 463.136719 878.726562 461 879.464844 459.117188 C 880.320312 456.945312 881.058594 455.078125 881.617188 453.949219 C 881.683594 453.808594 881.683594 453.648438 881.625 453.554688 C 881.449219 453.296875 881.253906 453.0625 881.066406 452.824219 C 880.339844 451.941406 879.433594 450.824219 879.585938 449.042969 C 879.683594 447.902344 880.476562 446.921875 881.5625 446.597656 C 884.742188 445.652344 887.671875 442.113281 890.253906 438.996094 C 891.957031 436.925781 893.578125 434.972656 895.175781 433.878906 C 896.367188 433.066406 897.328125 432.613281 898.347656 432.136719 C 898.953125 431.855469 899.605469 431.546875 900.371094 431.128906 C 900.984375 430.792969 901.675781 430.691406 902.320312 430.828125 C 904.121094 431.222656 905.34375 431.953125 906.0625 433.082031 C 907.253906 434.957031 906.695312 437.382812 906.097656 439.945312 C 905.101562 444.285156 904.070312 448.769531 910.191406 452.175781 C 911.292969 452.785156 911.882812 454.042969 911.640625 455.226562 C 911.480469 455.996094 911.472656 457.175781 911.613281 458.632812 C 911.640625 458.914062 911.816406 459.023438 911.910156 459.0625 C 912.011719 459.101562 912.210938 459.152344 912.398438 458.996094 C 914.6875 457.132812 917.136719 456.582031 918.792969 457.542969 C 921.136719 458.921875 920.96875 462.730469 920.289062 464.960938 C 918.972656 469.285156 914.609375 471.226562 912.125 472.003906 C 911.882812 472.078125 911.742188 472.339844 911.808594 472.59375 C 913.234375 477.542969 917.902344 494.253906 918.257812 501.839844 C 918.273438 502.074219 918.421875 502.265625 918.644531 502.308594 L 927.324219 504.210938 C 940.582031 507.117188 956.292969 515.128906 966.433594 524.144531 L 979.316406 534.941406 C 979.535156 535.144531 980.011719 535.480469 980.503906 535.828125 C 982.808594 537.46875 984.335938 538.644531 984.449219 539.914062 C 984.488281 540.398438 984.320312 540.855469 983.984375 541.199219 C 972.664062 552.714844 957.09375 556.492188 941.550781 556.492188 " fill-opacity="1" fill-rule="nonzero"/><path fill="#ffffff" d="M 900.667969 474.558594 C 900.667969 474.558594 894.601562 477.015625 887.632812 474.398438 L 900.667969 474.558594 " fill-opacity="1" fill-rule="nonzero"/><path fill="#1d1d1f" d="M 894.359375 476.785156 C 892.253906 476.785156 889.800781 476.46875 887.214844 475.5 C 886.613281 475.269531 886.300781 474.585938 886.53125 473.976562 C 886.761719 473.367188 887.4375 473.058594 888.046875 473.289062 C 894.507812 475.71875 900.167969 473.480469 900.21875 473.457031 C 900.828125 473.214844 901.511719 473.503906 901.761719 474.109375 C 902.003906 474.710938 901.710938 475.402344 901.113281 475.644531 C 900.933594 475.710938 898.230469 476.785156 894.359375 476.785156 " fill-opacity="1" fill-rule="nonzero"/><path fill="#1d1d1f" d="M 933.109375 435.351562 C 933.109375 435.351562 936.035156 417.613281 950.097656 422.417969 C 964.164062 427.210938 950.519531 441.800781 939.894531 442.921875 C 929.269531 444.042969 933.109375 435.351562 933.109375 435.351562 " fill-opacity="1" fill-rule="nonzero"/><path fill="#ffffff" d="M 664.449219 368.285156 L 647.074219 351.460938 C 645.867188 350.292969 643.996094 350.15625 642.636719 351.136719 C 641.089844 352.246094 640.726562 354.398438 641.828125 355.953125 L 647.335938 363.757812 L 642.898438 374.71875 C 641.539062 378.09375 642.421875 381.960938 645.117188 384.410156 L 652.25 390.875 C 655.824219 394.113281 661.015625 394.828125 665.332031 392.675781 L 668.234375 391.230469 C 672.707031 389.007812 675.269531 384.1875 674.617188 379.234375 L 673.855469 373.398438 C 673.378906 369.734375 669.914062 367.238281 666.289062 367.933594 L 664.449219 368.285156 " fill-opacity="1" fill-rule="nonzero"/><path fill="#1d1d1f" d="M 644.660156 351.664062 C 644.191406 351.664062 643.726562 351.804688 643.324219 352.089844 C 642.3125 352.824219 642.074219 354.25 642.792969 355.269531 L 648.304688 363.074219 C 648.53125 363.40625 648.582031 363.828125 648.429688 364.195312 L 643.996094 375.160156 C 642.820312 378.066406 643.589844 381.429688 645.917969 383.527344 L 653.050781 389.996094 C 656.28125 392.933594 660.898438 393.566406 664.808594 391.617188 L 667.710938 390.171875 C 671.722656 388.175781 674.035156 383.835938 673.453125 379.390625 L 672.683594 373.546875 C 672.5 372.105469 671.742188 370.839844 670.5625 369.984375 C 669.382812 369.132812 667.945312 368.8125 666.511719 369.089844 L 664.667969 369.441406 C 664.292969 369.511719 663.902344 369.398438 663.628906 369.128906 L 646.253906 352.308594 C 645.8125 351.878906 645.238281 351.664062 644.660156 351.664062 Z M 660.09375 395.101562 C 656.972656 395.101562 653.902344 393.957031 651.460938 391.75 L 644.328125 385.28125 C 641.273438 382.511719 640.261719 378.09375 641.804688 374.273438 L 646 363.910156 L 640.863281 356.628906 C 639.398438 354.558594 639.882812 351.664062 641.945312 350.175781 C 643.777344 348.863281 646.277344 349.046875 647.890625 350.609375 L 664.832031 367.003906 L 666.066406 366.765625 C 668.144531 366.371094 670.230469 366.832031 671.949219 368.074219 C 673.65625 369.3125 674.75 371.144531 675.027344 373.246094 L 675.792969 379.082031 C 676.503906 384.53125 673.675781 389.839844 668.765625 392.289062 L 665.863281 393.734375 C 664.015625 394.652344 662.050781 395.101562 660.09375 395.101562 " fill-opacity="1" fill-rule="nonzero"/><path fill="#ffffff" d="M 664.449219 368.285156 L 657.960938 373.082031 C 657.960938 373.082031 660.105469 379.351562 664.449219 376.78125 L 664.449219 368.285156 " fill-opacity="1" fill-rule="nonzero"/><path fill="#1d1d1f" d="M 662.417969 378.582031 C 661.84375 378.582031 661.34375 378.460938 660.953125 378.316406 C 658.226562 377.316406 656.972656 373.855469 656.839844 373.464844 C 656.675781 372.980469 656.847656 372.441406 657.257812 372.132812 L 663.746094 367.335938 C 664.273438 366.941406 665.011719 367.054688 665.398438 367.578125 C 665.785156 368.105469 665.679688 368.839844 665.152344 369.234375 L 659.40625 373.480469 C 659.867188 374.425781 660.699219 375.714844 661.769531 376.101562 C 662.394531 376.332031 663.074219 376.222656 663.847656 375.765625 C 664.414062 375.429688 665.136719 375.621094 665.46875 376.175781 C 665.796875 376.742188 665.613281 377.464844 665.050781 377.796875 C 664.0625 378.382812 663.171875 378.582031 662.417969 378.582031 " fill-opacity="1" fill-rule="nonzero"/><path fill="#ffffff" d="M 646.15625 366.703125 L 653.472656 375.773438 L 646.15625 366.703125 " fill-opacity="1" fill-rule="nonzero"/><path fill="#1d1d1f" d="M 653.472656 376.953125 C 653.128906 376.953125 652.785156 376.804688 652.554688 376.515625 L 645.238281 367.441406 C 644.832031 366.9375 644.914062 366.191406 645.414062 365.785156 C 645.925781 365.375 646.667969 365.453125 647.078125 365.960938 L 654.394531 375.027344 C 654.800781 375.539062 654.722656 376.285156 654.214844 376.691406 C 653.996094 376.867188 653.734375 376.953125 653.472656 376.953125 " fill-opacity="1" fill-rule="nonzero"/><path fill="#ffffff" d="M 643.925781 373.824219 L 649.8125 380.984375 L 643.925781 373.824219 " fill-opacity="1" fill-rule="nonzero"/><path fill="#1d1d1f" d="M 649.8125 382.164062 C 649.476562 382.164062 649.136719 382.019531 648.902344 381.734375 L 643.011719 374.574219 C 642.597656 374.070312 642.667969 373.324219 643.175781 372.910156 C 643.671875 372.492188 644.417969 372.566406 644.832031 373.074219 L 650.726562 380.230469 C 651.144531 380.734375 651.066406 381.476562 650.566406 381.894531 C 650.34375 382.078125 650.082031 382.164062 649.8125 382.164062 " fill-opacity="1" fill-rule="nonzero"/><path fill="#ffffff" d="M 956.273438 689.195312 C 956.273438 689.195312 940.78125 677.570312 931.875 675.625 C 922.980469 673.683594 914.210938 679.640625 914.210938 679.640625 C 914.210938 679.640625 923.773438 684.953125 928.414062 685.566406 C 933.058594 686.179688 945.121094 708.425781 959.546875 701.296875 L 956.273438 689.195312 " fill-opacity="1" fill-rule="nonzero"/><path fill="#1d1d1f" d="M 916.628906 679.59375 C 919.585938 681.132812 925.390625 683.980469 928.566406 684.398438 C 930.386719 684.632812 932.5 686.835938 935.417969 689.871094 C 941.273438 695.976562 949.238281 704.269531 958.144531 700.636719 L 955.238281 689.902344 C 952.976562 688.242188 939.480469 678.496094 931.621094 676.777344 C 925.582031 675.460938 919.527344 678.054688 916.628906 679.59375 Z M 953.714844 703.898438 C 945.601562 703.898438 938.652344 696.652344 933.707031 691.503906 C 931.621094 689.332031 929.253906 686.871094 928.257812 686.734375 C 923.449219 686.101562 914.035156 680.890625 913.636719 680.671875 C 913.28125 680.472656 913.050781 680.101562 913.035156 679.691406 C 913.011719 679.28125 913.207031 678.890625 913.550781 678.664062 C 913.925781 678.410156 922.839844 672.441406 932.125 674.472656 C 941.175781 676.449219 956.335938 687.773438 956.980469 688.253906 C 957.183594 688.410156 957.34375 688.636719 957.410156 688.886719 L 960.683594 700.984375 C 960.835938 701.535156 960.578125 702.109375 960.066406 702.351562 C 957.882812 703.433594 955.757812 703.898438 953.714844 703.898438 " fill-opacity="1" fill-rule="nonzero"/><path fill="#ffffff" d="M 942.578125 507.929688 L 935.058594 505.042969 C 935.058594 505.042969 889.570312 534.15625 869.824219 490.0625 L 859.394531 487.066406 L 838.324219 546.792969 L 944.269531 575.015625 L 942.578125 507.929688 " fill-opacity="1" fill-rule="nonzero"/><path fill="#1d1d1f" d="M 839.863281 545.980469 L 943.046875 573.46875 L 941.414062 508.75 L 935.179688 506.351562 C 931.679688 508.472656 911.824219 519.714844 893.0625 514.117188 C 882.671875 511.011719 874.5625 503.253906 868.980469 491.046875 L 860.136719 488.511719 Z M 944.265625 576.199219 C 944.167969 576.199219 944.066406 576.183594 943.964844 576.15625 L 838.023438 547.929688 C 837.699219 547.847656 837.429688 547.632812 837.28125 547.339844 C 837.128906 547.050781 837.101562 546.710938 837.210938 546.402344 L 858.285156 486.679688 C 858.492188 486.089844 859.121094 485.765625 859.71875 485.933594 L 870.148438 488.925781 C 870.480469 489.023438 870.757812 489.265625 870.902344 489.582031 C 876.203125 501.421875 883.882812 508.917969 893.746094 511.855469 C 912.941406 517.597656 934.207031 504.183594 934.421875 504.046875 C 934.738281 503.84375 935.128906 503.804688 935.476562 503.941406 L 943.003906 506.832031 C 943.449219 507 943.746094 507.429688 943.757812 507.902344 L 945.445312 574.992188 C 945.457031 575.363281 945.289062 575.710938 945.003906 575.945312 C 944.789062 576.113281 944.53125 576.199219 944.265625 576.199219 " fill-opacity="1" fill-rule="nonzero"/><path fill="#1d1d1f" d="M 663.65625 399.398438 C 671.007812 397.085938 678.363281 394.773438 685.710938 392.457031 C 716.6875 428.507812 746.988281 447.03125 769.980469 457.335938 C 798.289062 470.03125 847.027344 484.402344 847.027344 484.402344 C 847.027344 484.402344 846.941406 507.492188 885.085938 533.863281 C 923.230469 560.21875 981.640625 534.027344 981.640625 534.027344 C 981.640625 534.027344 1046.363281 589.285156 1050.105469 622.488281 C 1056.335938 677.648438 960.304688 704.125 960.304688 704.125 L 956.269531 689.199219 C 956.269531 689.199219 994.90625 657.746094 986.527344 625.859375 C 978.144531 593.960938 956.554688 579.84375 956.554688 579.84375 C 950.125 616.664062 952.886719 659.539062 952.886719 659.539062 C 889.449219 675.683594 834.699219 654.894531 810.523438 642.988281 C 802.289062 638.933594 797.699219 629.992188 799.109375 620.929688 C 804.429688 586.820312 817.804688 543.761719 817.804688 543.761719 C 803.140625 543.003906 787.335938 540.175781 771.292969 533.945312 C 692.882812 503.496094 667.742188 414.730469 663.65625 399.398438 " fill-opacity="1" fill-rule="nonzero"/><path fill="#ffffff" d="M 880.914062 641.53125 C 880.761719 641.53125 880.617188 641.507812 880.46875 641.445312 C 832.398438 621.738281 825.363281 567.472656 825.296875 566.921875 C 825.21875 566.273438 825.679688 565.679688 826.332031 565.609375 C 826.972656 565.535156 827.5625 565.992188 827.636719 566.636719 C 827.703125 567.167969 834.597656 620.09375 881.367188 639.265625 C 881.964844 639.511719 882.257812 640.195312 882.011719 640.796875 C 881.824219 641.257812 881.386719 641.53125 880.914062 641.53125 " fill-opacity="1" fill-rule="nonzero"/><path fill="#ffffff" d="M 87.574219 871.125 C 101.808594 841.839844 103.164062 812.320312 87.574219 782.507812 L 98.765625 769.089844 L 404.761719 779.152344 L 394.210938 876.355469 L 98.011719 879.769531 L 87.574219 871.125 " fill-opacity="1" fill-rule="nonzero"/><path fill="#1d1d1f" d="M 89.042969 870.808594 L 98.433594 878.585938 L 393.152344 875.191406 L 403.453125 780.292969 L 99.304688 770.285156 L 88.984375 782.660156 C 103.484375 810.867188 103.5 840.515625 89.042969 870.808594 Z M 98.011719 880.949219 C 97.738281 880.949219 97.472656 880.855469 97.261719 880.679688 L 86.824219 872.039062 C 86.40625 871.6875 86.277344 871.101562 86.515625 870.613281 C 101.359375 840.0625 101.363281 811.425781 86.53125 783.054688 C 86.3125 782.632812 86.367188 782.117188 86.671875 781.753906 L 97.859375 768.335938 C 98.09375 768.054688 98.449219 767.878906 98.804688 767.910156 L 404.796875 777.976562 C 405.128906 777.980469 405.4375 778.132812 405.652344 778.378906 C 405.867188 778.625 405.96875 778.953125 405.933594 779.28125 L 395.386719 876.484375 C 395.320312 877.078125 394.824219 877.53125 394.226562 877.539062 L 98.027344 880.949219 C 98.023438 880.949219 98.019531 880.949219 98.011719 880.949219 " fill-opacity="1" fill-rule="nonzero"/><path fill="#ffffff" d="M 649.839844 758.386719 L 81.898438 758.386719 C 75.261719 758.386719 69.878906 763.769531 69.878906 770.40625 C 69.878906 777.042969 75.261719 782.429688 81.898438 782.429688 L 343.003906 782.429688 C 362.125 782.429688 377.625 797.925781 377.625 817.046875 L 377.625 836.507812 C 377.625 855.628906 362.125 871.125 343.003906 871.125 L 81.898438 871.125 C 75.261719 871.125 69.878906 876.511719 69.878906 883.152344 C 69.878906 889.785156 75.261719 895.167969 81.898438 895.167969 L 649.839844 895.167969 C 685.097656 895.167969 713.675781 866.589844 713.675781 831.332031 L 713.675781 822.222656 C 713.675781 786.964844 685.097656 758.386719 649.839844 758.386719 " fill-opacity="1" fill-rule="nonzero"/><g clip-path="url(#314e3e7091)"><path fill="#1d1d1f" d="M 81.898438 872.308594 C 75.921875 872.308594 71.058594 877.171875 71.058594 883.152344 C 71.058594 889.125 75.921875 893.988281 81.898438 893.988281 L 649.839844 893.988281 C 684.390625 893.988281 712.496094 865.882812 712.496094 831.332031 L 712.496094 822.222656 C 712.496094 787.671875 684.390625 759.566406 649.839844 759.566406 L 81.898438 759.566406 C 75.921875 759.566406 71.058594 764.429688 71.058594 770.40625 C 71.058594 776.386719 75.921875 781.246094 81.898438 781.246094 L 343.007812 781.246094 C 362.746094 781.246094 378.804688 797.304688 378.804688 817.046875 L 378.804688 836.507812 C 378.804688 856.25 362.746094 872.308594 343.007812 872.308594 Z M 649.839844 896.347656 L 81.898438 896.347656 C 74.621094 896.347656 68.699219 890.429688 68.699219 883.152344 C 68.699219 875.867188 74.621094 869.945312 81.898438 869.945312 L 343.007812 869.945312 C 361.445312 869.945312 376.445312 854.945312 376.445312 836.507812 L 376.445312 817.046875 C 376.445312 798.609375 361.445312 783.609375 343.007812 783.609375 L 81.898438 783.609375 C 74.621094 783.609375 68.699219 777.6875 68.699219 770.40625 C 68.699219 763.125 74.621094 757.207031 81.898438 757.207031 L 649.839844 757.207031 C 685.691406 757.207031 714.855469 786.371094 714.855469 822.222656 L 714.855469 831.332031 C 714.855469 867.183594 685.691406 896.347656 649.839844 896.347656 " fill-opacity="1" fill-rule="nonzero"/></g><path fill="#1d1d1f" d="M 252.441406 809.382812 L 230.078125 809.382812 C 229.425781 809.382812 228.898438 808.855469 228.898438 808.203125 C 228.898438 807.554688 229.425781 807.023438 230.078125 807.023438 L 252.441406 807.023438 C 253.09375 807.023438 253.625 807.554688 253.625 808.203125 C 253.625 808.855469 253.09375 809.382812 252.441406 809.382812 " fill-opacity="1" fill-rule="nonzero"/><path fill="#1d1d1f" d="M 220.804688 809.382812 L 102.414062 809.382812 C 101.761719 809.382812 101.234375 808.855469 101.234375 808.203125 C 101.234375 807.554688 101.761719 807.023438 102.414062 807.023438 L 220.804688 807.023438 C 221.457031 807.023438 221.984375 807.554688 221.984375 808.203125 C 221.984375 808.855469 221.457031 809.382812 220.804688 809.382812 " fill-opacity="1" fill-rule="nonzero"/><path fill="#1d1d1f" d="M 243.570312 823.863281 L 105.863281 823.863281 C 105.210938 823.863281 104.683594 823.335938 104.683594 822.683594 C 104.683594 822.035156 105.210938 821.503906 105.863281 821.503906 L 243.570312 821.503906 C 244.226562 821.503906 244.753906 822.035156 244.753906 822.683594 C 244.753906 823.335938 244.226562 823.863281 243.570312 823.863281 " fill-opacity="1" fill-rule="nonzero"/><path fill="#1d1d1f" d="M 274.085938 849.820312 L 252.171875 849.820312 C 251.519531 849.820312 250.992188 849.292969 250.992188 848.640625 C 250.992188 847.984375 251.519531 847.460938 252.171875 847.460938 L 274.085938 847.460938 C 274.738281 847.460938 275.265625 847.984375 275.265625 848.640625 C 275.265625 849.292969 274.738281 849.820312 274.085938 849.820312 " fill-opacity="1" fill-rule="nonzero"/><path fill="#1d1d1f" d="M 242.484375 849.820312 L 102.414062 849.820312 C 101.761719 849.820312 101.234375 849.292969 101.234375 848.640625 C 101.234375 847.984375 101.761719 847.460938 102.414062 847.460938 L 242.484375 847.460938 C 243.136719 847.460938 243.664062 847.984375 243.664062 848.640625 C 243.664062 849.292969 243.136719 849.820312 242.484375 849.820312 " fill-opacity="1" fill-rule="nonzero"/><path fill="#ffffff" d="M 96.414062 1034.894531 L 609.414062 1034.894531 L 609.414062 909.214844 L 96.414062 909.214844 C 111.554688 951.667969 111.972656 993.574219 96.414062 1034.894531 " fill-opacity="1" fill-rule="nonzero"/><path fill="#1d1d1f" d="M 98.113281 1033.714844 L 608.234375 1033.714844 L 608.234375 910.394531 L 98.078125 910.394531 C 112.699219 952.390625 112.714844 993.863281 98.113281 1033.714844 Z M 609.414062 1036.074219 L 96.414062 1036.074219 C 96.023438 1036.074219 95.664062 1035.886719 95.441406 1035.570312 C 95.21875 1035.25 95.171875 1034.84375 95.304688 1034.484375 C 110.484375 994.179688 110.480469 952.167969 95.300781 909.609375 C 95.171875 909.253906 95.226562 908.851562 95.445312 908.53125 C 95.667969 908.222656 96.027344 908.035156 96.414062 908.035156 L 609.414062 908.035156 C 610.0625 908.035156 610.59375 908.558594 610.59375 909.214844 L 610.59375 1034.894531 C 610.59375 1035.550781 610.0625 1036.074219 609.414062 1036.074219 " fill-opacity="1" fill-rule="nonzero"/><path fill="#ffffff" d="M 547.65625 915.414062 L 92.882812 915.414062 C 87.414062 915.414062 82.980469 910.984375 82.980469 905.515625 C 82.980469 900.042969 87.414062 895.609375 92.882812 895.609375 L 683.023438 895.609375 C 707.058594 895.609375 726.542969 915.089844 726.542969 939.128906 L 726.542969 1007.539062 C 726.542969 1031.570312 707.058594 1051.054688 683.023438 1051.054688 L 92.882812 1051.054688 C 87.414062 1051.054688 82.980469 1046.625 82.980469 1041.15625 C 82.980469 1035.683594 87.414062 1031.25 92.882812 1031.25 L 547.65625 1031.25 C 564.632812 1031.25 578.394531 1017.488281 578.394531 1000.507812 L 578.394531 946.160156 C 578.394531 929.179688 564.632812 915.414062 547.65625 915.414062 " fill-opacity="1" fill-rule="nonzero"/><path fill="#1d1d1f" d="M 92.882812 1032.429688 C 88.074219 1032.429688 84.160156 1036.34375 84.160156 1041.15625 C 84.160156 1045.964844 88.074219 1049.875 92.882812 1049.875 L 683.023438 1049.875 C 706.367188 1049.875 725.363281 1030.882812 725.363281 1007.539062 L 725.363281 939.128906 C 725.363281 915.785156 706.367188 896.789062 683.023438 896.789062 L 92.882812 896.789062 C 88.074219 896.789062 84.160156 900.703125 84.160156 905.515625 C 84.160156 910.320312 88.074219 914.234375 92.882812 914.234375 L 547.65625 914.234375 C 565.257812 914.234375 579.582031 928.554688 579.582031 946.160156 L 579.582031 1000.507812 C 579.582031 1018.109375 565.257812 1032.429688 547.65625 1032.429688 Z M 683.023438 1052.234375 L 92.882812 1052.234375 C 86.773438 1052.234375 81.800781 1047.265625 81.800781 1041.15625 C 81.800781 1035.039062 86.773438 1030.070312 92.882812 1030.070312 L 547.65625 1030.070312 C 563.953125 1030.070312 577.214844 1016.804688 577.214844 1000.507812 L 577.214844 946.160156 C 577.214844 929.855469 563.953125 916.59375 547.65625 916.59375 L 92.882812 916.59375 C 86.773438 916.59375 81.800781 911.621094 81.800781 905.515625 C 81.800781 899.402344 86.773438 894.429688 92.882812 894.429688 L 683.023438 894.429688 C 707.671875 894.429688 727.722656 914.480469 727.722656 939.128906 L 727.722656 1007.539062 C 727.722656 1032.1875 707.671875 1052.234375 683.023438 1052.234375 " fill-opacity="1" fill-rule="nonzero"/><path fill="#1d1d1f" d="M 185.957031 940.238281 L 110.207031 940.238281 C 109.554688 940.238281 109.027344 939.714844 109.027344 939.058594 C 109.027344 938.40625 109.554688 937.878906 110.207031 937.878906 L 185.957031 937.878906 C 186.609375 937.878906 187.140625 938.40625 187.140625 939.058594 C 187.140625 939.714844 186.609375 940.238281 185.957031 940.238281 " fill-opacity="1" fill-rule="nonzero"/><path fill="#1d1d1f" d="M 331.921875 940.238281 L 196.582031 940.238281 C 195.929688 940.238281 195.402344 939.714844 195.402344 939.058594 C 195.402344 938.40625 195.929688 937.878906 196.582031 937.878906 L 331.921875 937.878906 C 332.570312 937.878906 333.101562 938.40625 333.101562 939.058594 C 333.101562 939.714844 332.570312 940.238281 331.921875 940.238281 " fill-opacity="1" fill-rule="nonzero"/><path fill="#1d1d1f" d="M 301.101562 957.015625 L 111.804688 957.015625 C 111.152344 957.015625 110.621094 956.484375 110.621094 955.835938 C 110.621094 955.179688 111.152344 954.652344 111.804688 954.652344 L 301.101562 954.652344 C 301.75 954.652344 302.28125 955.179688 302.28125 955.835938 C 302.28125 956.484375 301.75 957.015625 301.101562 957.015625 " fill-opacity="1" fill-rule="nonzero"/><path fill="#1d1d1f" d="M 350.917969 957.015625 L 313.574219 957.015625 C 312.925781 957.015625 312.394531 956.484375 312.394531 955.835938 C 312.394531 955.179688 312.925781 954.652344 313.574219 954.652344 L 350.917969 954.652344 C 351.570312 954.652344 352.097656 955.179688 352.097656 955.835938 C 352.097656 956.484375 351.570312 957.015625 350.917969 957.015625 " fill-opacity="1" fill-rule="nonzero"/><path fill="#1d1d1f" d="M 312.535156 992.023438 L 111.804688 992.023438 C 111.152344 992.023438 110.621094 991.5 110.621094 990.84375 C 110.621094 990.195312 111.152344 989.664062 111.804688 989.664062 L 312.535156 989.664062 C 313.1875 989.664062 313.714844 990.195312 313.714844 990.84375 C 313.714844 991.5 313.1875 992.023438 312.535156 992.023438 " fill-opacity="1" fill-rule="nonzero"/><path fill="#1d1d1f" d="M 331.921875 992.023438 L 323.097656 992.023438 C 322.445312 992.023438 321.917969 991.5 321.917969 990.84375 C 321.917969 990.195312 322.445312 989.664062 323.097656 989.664062 L 331.921875 989.664062 C 332.570312 989.664062 333.101562 990.195312 333.101562 990.84375 C 333.101562 991.5 332.570312 992.023438 331.921875 992.023438 " fill-opacity="1" fill-rule="nonzero"/><path fill="#1d1d1f" d="M 147.925781 627.027344 C 145.105469 629.316406 144.671875 633.542969 146.957031 636.445312 C 148.074219 637.863281 149.660156 638.753906 151.417969 638.945312 C 153.136719 639.152344 154.824219 638.648438 156.167969 637.554688 C 158.988281 635.257812 159.421875 631.03125 157.136719 628.125 C 156.019531 626.707031 154.433594 625.820312 152.671875 625.625 C 150.957031 625.433594 149.269531 625.929688 147.925781 627.027344 Z M 152.144531 641.347656 C 151.820312 641.347656 151.488281 641.335938 151.160156 641.296875 C 148.765625 641.027344 146.613281 639.828125 145.105469 637.90625 C 142.023438 634 142.625 628.292969 146.4375 625.191406 C 148.277344 623.695312 150.582031 623.015625 152.933594 623.28125 C 155.328125 623.542969 157.480469 624.75 158.988281 626.667969 C 162.070312 630.582031 161.46875 636.28125 157.65625 639.386719 C 156.074219 640.667969 154.148438 641.347656 152.144531 641.347656 " fill-opacity="1" fill-rule="nonzero"/><path fill="#1d1d1f" d="M 146.015625 679.078125 C 145.734375 679.078125 145.449219 678.976562 145.222656 678.773438 L 139.726562 673.792969 C 139.242188 673.355469 139.207031 672.605469 139.644531 672.125 C 140.082031 671.640625 140.828125 671.609375 141.3125 672.042969 L 146.808594 677.023438 C 147.292969 677.464844 147.328125 678.210938 146.890625 678.691406 C 146.65625 678.949219 146.335938 679.078125 146.015625 679.078125 " fill-opacity="1" fill-rule="nonzero"/><path fill="#1d1d1f" d="M 165.25 696.519531 C 164.964844 696.519531 164.683594 696.417969 164.457031 696.214844 L 158.960938 691.226562 C 158.476562 690.792969 158.441406 690.046875 158.878906 689.558594 C 159.320312 689.078125 160.0625 689.042969 160.546875 689.476562 L 166.042969 694.460938 C 166.523438 694.898438 166.5625 695.644531 166.125 696.128906 C 165.890625 696.386719 165.570312 696.519531 165.25 696.519531 " fill-opacity="1" fill-rule="nonzero"/><path fill="#1d1d1f" d="M 141.746094 697.734375 C 141.464844 697.734375 141.183594 697.632812 140.957031 697.4375 C 140.472656 697 140.433594 696.257812 140.867188 695.769531 L 145.816406 690.246094 C 146.253906 689.757812 147 689.71875 147.484375 690.152344 C 147.96875 690.589844 148.011719 691.332031 147.578125 691.820312 L 142.625 697.34375 C 142.390625 697.601562 142.070312 697.734375 141.746094 697.734375 " fill-opacity="1" fill-rule="nonzero"/><path fill="#1d1d1f" d="M 159.074219 678.402344 C 158.792969 678.402344 158.511719 678.300781 158.285156 678.101562 C 157.800781 677.664062 157.761719 676.917969 158.195312 676.433594 L 163.144531 670.910156 C 163.578125 670.421875 164.324219 670.378906 164.8125 670.820312 C 165.296875 671.253906 165.335938 672 164.902344 672.488281 L 159.953125 678.007812 C 159.71875 678.269531 159.394531 678.402344 159.074219 678.402344 " fill-opacity="1" fill-rule="nonzero"/><path fill="#1d1d1f" d="M 997.730469 466.667969 C 997.453125 466.667969 997.164062 466.5625 996.933594 466.359375 L 991.445312 461.382812 C 990.960938 460.945312 990.929688 460.199219 991.363281 459.714844 C 991.800781 459.230469 992.539062 459.195312 993.023438 459.632812 L 998.527344 464.617188 C 999.003906 465.050781 999.042969 465.800781 998.601562 466.285156 C 998.378906 466.539062 998.050781 466.667969 997.730469 466.667969 " fill-opacity="1" fill-rule="nonzero"/><path fill="#1d1d1f" d="M 1016.96875 484.101562 C 1016.683594 484.101562 1016.398438 484.007812 1016.179688 483.800781 L 1010.679688 478.816406 C 1010.191406 478.382812 1010.164062 477.632812 1010.601562 477.148438 C 1011.039062 476.671875 1011.785156 476.628906 1012.265625 477.066406 L 1017.765625 482.046875 C 1018.25 482.488281 1018.285156 483.230469 1017.839844 483.714844 C 1017.613281 483.972656 1017.292969 484.101562 1016.96875 484.101562 " fill-opacity="1" fill-rule="nonzero"/><path fill="#1d1d1f" d="M 993.464844 485.328125 C 993.1875 485.328125 992.898438 485.230469 992.675781 485.027344 C 992.191406 484.589844 992.148438 483.847656 992.585938 483.355469 L 997.539062 477.832031 C 997.96875 477.347656 998.714844 477.308594 999.199219 477.742188 C 999.683594 478.179688 999.726562 478.921875 999.289062 479.414062 L 994.34375 484.933594 C 994.113281 485.191406 993.792969 485.328125 993.464844 485.328125 " fill-opacity="1" fill-rule="nonzero"/><path fill="#1d1d1f" d="M 1010.789062 465.996094 C 1010.507812 465.996094 1010.222656 465.890625 1010 465.691406 C 1009.515625 465.253906 1009.472656 464.515625 1009.910156 464.023438 L 1014.859375 458.503906 C 1015.292969 458.011719 1016.042969 457.976562 1016.527344 458.414062 C 1017.019531 458.839844 1017.050781 459.589844 1016.617188 460.074219 L 1011.667969 465.601562 C 1011.4375 465.859375 1011.109375 465.996094 1010.789062 465.996094 " fill-opacity="1" fill-rule="nonzero"/><path fill="#1d1d1f" d="M 651.59375 126.355469 C 651.503906 126.355469 651.40625 126.347656 651.316406 126.320312 C 598.867188 113.632812 551.511719 108.363281 510.558594 110.652344 C 509.917969 110.703125 509.351562 110.1875 509.3125 109.539062 C 509.277344 108.890625 509.773438 108.328125 510.425781 108.292969 C 551.617188 105.984375 599.199219 111.28125 651.863281 124.023438 C 652.507812 124.183594 652.894531 124.820312 652.742188 125.457031 C 652.605469 125.996094 652.125 126.355469 651.59375 126.355469 " fill-opacity="1" fill-rule="nonzero"/><path fill="#1d1d1f" d="M 634.292969 106.214844 C 634.214844 106.214844 634.128906 106.207031 634.058594 106.191406 C 585.914062 96.453125 517.230469 87.304688 463.445312 99.015625 C 462.804688 99.148438 462.179688 98.75 462.039062 98.109375 C 461.902344 97.472656 462.304688 96.847656 462.941406 96.707031 C 517.132812 84.910156 586.160156 94.09375 634.523438 103.875 C 635.164062 104.003906 635.574219 104.628906 635.445312 105.261719 C 635.332031 105.828125 634.839844 106.214844 634.292969 106.214844 " fill-opacity="1" fill-rule="nonzero"/><path fill="#1d1d1f" d="M 421.527344 111.117188 L 446.949219 115.839844 L 442.597656 92.597656 Z M 448.421875 118.5 C 448.355469 118.5 448.277344 118.492188 448.210938 118.476562 L 418.710938 112.996094 C 418.265625 112.910156 417.910156 112.582031 417.785156 112.148438 C 417.667969 111.714844 417.808594 111.242188 418.148438 110.945312 L 442.597656 89.460938 C 442.917969 89.179688 443.363281 89.089844 443.765625 89.230469 C 444.164062 89.367188 444.460938 89.710938 444.535156 90.128906 L 449.585938 117.101562 C 449.65625 117.480469 449.53125 117.875 449.261719 118.148438 C 449.035156 118.375 448.734375 118.5 448.421875 118.5 " fill-opacity="1" fill-rule="nonzero"/></svg>