<svg xmlns="http://www.w3.org/2000/svg" xmlns:xlink="http://www.w3.org/1999/xlink" width="1920" zoomAndPan="magnify" viewBox="0 0 1440 809.999993" height="1080" preserveAspectRatio="xMidYMid meet" version="1.0"><defs><g/><clipPath id="35566c4cc4"><path d="M 89.90625 222 L 266 222 L 266 327 L 89.90625 327 Z M 89.90625 222 " clip-rule="nonzero"/></clipPath><clipPath id="176a9d31d1"><path d="M 89.90625 360 L 266 360 L 266 465 L 89.90625 465 Z M 89.90625 360 " clip-rule="nonzero"/></clipPath><clipPath id="32c4818701"><path d="M 89.90625 498 L 266 498 L 266 603 L 89.90625 603 Z M 89.90625 498 " clip-rule="nonzero"/></clipPath><clipPath id="397719bcda"><path d="M 290 133.773438 L 431.359375 133.773438 L 431.359375 690.878906 L 290 690.878906 Z M 290 133.773438 " clip-rule="nonzero"/></clipPath></defs><g clip-path="url(#35566c4cc4)"><path fill="#100f0d" d="M 265.339844 326.113281 L -74.152344 326.113281 C -111.199219 283.464844 -151.609375 248.582031 -193.105469 222.335938 L 265.339844 222.335938 L 265.339844 326.113281 " fill-opacity="1" fill-rule="nonzero"/></g><g clip-path="url(#176a9d31d1)"><path fill="#100f0d" d="M 265.339844 464.191406 L 18.457031 464.191406 C 9.308594 446.238281 -0.710938 428.433594 -11.636719 410.96875 C -22.6875 393.257812 -34.257812 376.421875 -46.347656 360.460938 L 265.339844 360.460938 L 265.339844 464.191406 " fill-opacity="1" fill-rule="nonzero"/></g><g clip-path="url(#32c4818701)"><path fill="#100f0d" d="M 265.339844 602.316406 L 71.089844 602.316406 C 62.152344 567.777344 50.0625 532.9375 34.78125 498.542969 L 265.339844 498.542969 L 265.339844 602.316406 " fill-opacity="1" fill-rule="nonzero"/></g><g clip-path="url(#397719bcda)"><path fill="#100f0d" d="M 290.222656 690.882812 L 290.222656 133.769531 L 431.320312 133.769531 L 431.320312 690.882812 L 290.222656 690.882812 " fill-opacity="1" fill-rule="nonzero"/></g><g fill="#1d1d1f" fill-opacity="1"><g transform="translate(495.957461, 283.823463)"><g><path d="M 12.09375 0 L 12.09375 -140.734375 L 50.75 -140.734375 L 50.75 -83.25 L 97.53125 -140.734375 L 137.171875 -140.734375 L 86.03125 -77.703125 L 140.734375 0 L 100.296875 0 L 63.234375 -56.09375 L 50.75 -41.828125 L 50.75 0 Z M 12.09375 0 "/></g></g></g><g fill="#1d1d1f" fill-opacity="1"><g transform="translate(632.515379, 283.823463)"><g><path d="M 73.34375 -33.109375 C 77.832031 -33.109375 81.660156 -34.097656 84.828125 -36.078125 C 88.003906 -38.054688 90.582031 -40.664062 92.5625 -43.90625 C 94.550781 -47.144531 96.003906 -50.878906 96.921875 -55.109375 C 97.847656 -59.335938 98.3125 -63.765625 98.3125 -68.390625 L 98.3125 -140.734375 L 136.96875 -140.734375 L 136.96875 -68.390625 C 136.96875 -58.609375 135.710938 -49.453125 133.203125 -40.921875 C 130.691406 -32.398438 126.789062 -25.035156 121.5 -18.828125 C 116.21875 -12.617188 109.578125 -7.726562 101.578125 -4.15625 C 93.585938 -0.59375 84.175781 1.1875 73.34375 1.1875 C 62.113281 1.1875 52.5 -0.691406 44.5 -4.453125 C 36.507812 -8.222656 29.9375 -13.28125 24.78125 -19.625 C 19.625 -25.96875 15.851562 -33.332031 13.46875 -41.71875 C 11.09375 -50.113281 9.90625 -59.003906 9.90625 -68.390625 L 9.90625 -140.734375 L 48.5625 -140.734375 L 48.5625 -68.390625 C 48.5625 -63.765625 49.023438 -59.300781 49.953125 -55 C 50.878906 -50.707031 52.332031 -46.941406 54.3125 -43.703125 C 56.289062 -40.460938 58.832031 -37.882812 61.9375 -35.96875 C 65.039062 -34.0625 68.84375 -33.109375 73.34375 -33.109375 Z M 73.34375 -33.109375 "/></g></g></g><g fill="#1d1d1f" fill-opacity="1"><g transform="translate(779.379587, 283.823463)"><g><path d="M 57.09375 -140.734375 L 92.5625 -140.734375 L 104.859375 -97.328125 L 117.34375 -140.734375 L 152.828125 -140.734375 L 129.640625 -73.546875 L 139.75 -44.203125 L 170.078125 -140.734375 L 212.09375 -140.734375 L 156.984375 0 L 124.875 0 L 104.859375 -50.34375 L 85.03125 0 L 52.921875 0 L -2.1875 -140.734375 L 39.640625 -140.734375 L 70.171875 -44.203125 L 79.875 -73.546875 Z M 57.09375 -140.734375 "/></g></g></g><g fill="#1d1d1f" fill-opacity="1"><g transform="translate(989.270514, 283.823463)"><g><path d="M -1.578125 0 L 50.9375 -140.734375 L 82.265625 -140.734375 L 134.59375 0 L 93.75 0 L 85.234375 -27.546875 L 47.765625 -27.546875 L 39.453125 0 Z M 66.59375 -100.5 L 53.515625 -53.328125 L 79.09375 -53.328125 Z M 66.59375 -100.5 "/></g></g></g><g fill="#1d1d1f" fill-opacity="1"><g transform="translate(1122.260888, 283.823463)"><g><path d="M 12.09375 0 L 12.09375 -140.734375 L 50.75 -140.734375 L 50.75 0 Z M 12.09375 0 "/></g></g></g><g fill="#1d1d1f" fill-opacity="1"><g transform="translate(1185.08942, 283.823463)"><g><path d="M 121.703125 -107.03125 L 81.265625 -107.03125 L 81.265625 0 L 42.609375 0 L 42.609375 -107.03125 L 1.984375 -107.03125 L 1.984375 -140.734375 L 121.703125 -140.734375 Z M 121.703125 -107.03125 "/></g></g></g><g fill="#1d1d1f" fill-opacity="1"><g transform="translate(495.957461, 481.308888)"><g/></g></g><g fill="#1d1d1f" fill-opacity="1"><g transform="translate(495.957461, 481.308888)"><g><path d="M 12.09375 0 L 12.09375 -140.734375 L 50.75 -140.734375 L 50.75 0 Z M 12.09375 0 "/></g></g></g><g fill="#1d1d1f" fill-opacity="1"><g transform="translate(558.785993, 481.308888)"><g><path d="M 99.703125 -11.5 C 90.847656 -3.175781 80.609375 0.984375 68.984375 0.984375 C 60.253906 0.984375 51.992188 -0.960938 44.203125 -4.859375 C 36.410156 -8.753906 29.570312 -14.003906 23.6875 -20.609375 C 17.800781 -27.222656 13.140625 -34.921875 9.703125 -43.703125 C 6.273438 -52.492188 4.5625 -61.78125 4.5625 -71.5625 C 4.5625 -81.46875 6.3125 -90.679688 9.8125 -99.203125 C 13.3125 -107.734375 18.132812 -115.132812 24.28125 -121.40625 C 30.425781 -127.6875 37.660156 -132.640625 45.984375 -136.265625 C 54.304688 -139.898438 63.226562 -141.71875 72.75 -141.71875 C 78.695312 -141.71875 84.378906 -141.023438 89.796875 -139.640625 C 95.210938 -138.253906 100.234375 -136.207031 104.859375 -133.5 C 109.484375 -130.789062 113.613281 -127.550781 117.25 -123.78125 C 120.882812 -120.019531 123.890625 -115.757812 126.265625 -111 L 97.53125 -89 C 95.144531 -94.550781 91.539062 -99.007812 86.71875 -102.375 C 81.894531 -105.75 76.773438 -107.4375 71.359375 -107.4375 C 67.390625 -107.4375 63.71875 -106.507812 60.34375 -104.65625 C 56.976562 -102.8125 54.070312 -100.234375 51.625 -96.921875 C 49.1875 -93.617188 47.273438 -89.6875 45.890625 -85.125 C 44.503906 -80.570312 43.8125 -75.585938 43.8125 -70.171875 C 43.8125 -64.617188 44.503906 -59.59375 45.890625 -55.09375 C 47.273438 -50.601562 49.222656 -46.738281 51.734375 -43.5 C 54.242188 -40.269531 57.25 -37.757812 60.75 -35.96875 C 64.25 -34.1875 68.113281 -33.296875 72.34375 -33.296875 C 77.101562 -33.296875 81.695312 -34.484375 86.125 -36.859375 C 90.550781 -39.242188 94.679688 -42.679688 98.515625 -47.171875 L 73.734375 -47.171875 L 73.734375 -74.921875 L 131.625 -74.921875 L 131.625 0 L 99.703125 0 Z M 99.703125 -11.5 "/></g></g></g><g fill="#1d1d1f" fill-opacity="1"><g transform="translate(697.325907, 481.308888)"><g><path d="M 4.359375 -71.5625 C 4.359375 -80.144531 5.878906 -88.597656 8.921875 -96.921875 C 11.960938 -105.253906 16.421875 -112.722656 22.296875 -119.328125 C 28.179688 -125.929688 35.316406 -131.28125 43.703125 -135.375 C 52.097656 -139.476562 61.644531 -141.53125 72.34375 -141.53125 C 84.90625 -141.53125 95.875 -138.71875 105.25 -133.09375 C 114.632812 -127.476562 121.570312 -120.046875 126.0625 -110.796875 L 96.53125 -89.796875 C 95.34375 -93.234375 93.789062 -96.070312 91.875 -98.3125 C 89.957031 -100.5625 87.875 -102.347656 85.625 -103.671875 C 83.382812 -104.992188 81.007812 -105.914062 78.5 -106.4375 C 75.988281 -106.96875 73.675781 -107.234375 71.5625 -107.234375 C 66.664062 -107.234375 62.46875 -106.140625 58.96875 -103.953125 C 55.46875 -101.773438 52.5625 -98.9375 50.25 -95.4375 C 47.9375 -91.9375 46.25 -87.972656 45.1875 -83.546875 C 44.132812 -79.117188 43.609375 -74.726562 43.609375 -70.375 C 43.609375 -65.476562 44.234375 -60.785156 45.484375 -56.296875 C 46.742188 -51.804688 48.59375 -47.84375 51.03125 -44.40625 C 53.476562 -40.96875 56.453125 -38.222656 59.953125 -36.171875 C 63.460938 -34.128906 67.460938 -33.109375 71.953125 -33.109375 C 74.203125 -33.109375 76.515625 -33.40625 78.890625 -34 C 81.265625 -34.59375 83.539062 -35.582031 85.71875 -36.96875 C 87.90625 -38.351562 89.890625 -40.132812 91.671875 -42.3125 C 93.460938 -44.5 94.882812 -47.175781 95.9375 -50.34375 L 127.453125 -31.515625 C 125.472656 -26.359375 122.46875 -21.734375 118.4375 -17.640625 C 114.40625 -13.546875 109.8125 -10.109375 104.65625 -7.328125 C 99.5 -4.554688 94.015625 -2.441406 88.203125 -0.984375 C 82.390625 0.460938 76.707031 1.1875 71.15625 1.1875 C 61.382812 1.1875 52.398438 -0.890625 44.203125 -5.046875 C 36.003906 -9.210938 28.960938 -14.726562 23.078125 -21.59375 C 17.203125 -28.46875 12.613281 -36.265625 9.3125 -44.984375 C 6.007812 -53.710938 4.359375 -62.570312 4.359375 -71.5625 Z M 4.359375 -71.5625 "/></g></g></g><g fill="#1d1d1f" fill-opacity="1"><g transform="translate(827.145154, 481.308888)"><g><path d="M 97.328125 -94.75 C 93.359375 -97.125 89.257812 -99.238281 85.03125 -101.09375 C 81.46875 -102.675781 77.472656 -104.160156 73.046875 -105.546875 C 68.617188 -106.941406 64.289062 -107.640625 60.0625 -107.640625 C 56.625 -107.640625 53.878906 -107.109375 51.828125 -106.046875 C 49.785156 -104.992188 48.765625 -103.207031 48.765625 -100.6875 C 48.765625 -98.84375 49.359375 -97.328125 50.546875 -96.140625 C 51.734375 -94.953125 53.445312 -93.859375 55.6875 -92.859375 C 57.9375 -91.867188 60.679688 -90.910156 63.921875 -89.984375 C 67.160156 -89.066406 70.828125 -87.945312 74.921875 -86.625 C 81.398438 -84.632812 87.25 -82.453125 92.46875 -80.078125 C 97.6875 -77.703125 102.144531 -74.894531 105.84375 -71.65625 C 109.550781 -68.414062 112.394531 -64.484375 114.375 -59.859375 C 116.351562 -55.234375 117.34375 -49.617188 117.34375 -43.015625 C 117.34375 -34.554688 115.789062 -27.453125 112.6875 -21.703125 C 109.582031 -15.953125 105.484375 -11.359375 100.390625 -7.921875 C 95.304688 -4.492188 89.5625 -2.019531 83.15625 -0.5 C 76.75 1.019531 70.304688 1.78125 63.828125 1.78125 C 58.671875 1.78125 53.382812 1.382812 47.96875 0.59375 C 42.550781 -0.195312 37.164062 -1.316406 31.8125 -2.765625 C 26.457031 -4.222656 21.300781 -5.941406 16.34375 -7.921875 C 11.394531 -9.910156 6.804688 -12.160156 2.578125 -14.671875 L 19.234375 -48.5625 C 23.859375 -45.65625 28.679688 -43.078125 33.703125 -40.828125 C 37.929688 -38.847656 42.71875 -37.066406 48.0625 -35.484375 C 53.414062 -33.898438 58.867188 -33.109375 64.421875 -33.109375 C 68.648438 -33.109375 71.585938 -33.664062 73.234375 -34.78125 C 74.890625 -35.90625 75.71875 -37.394531 75.71875 -39.25 C 75.71875 -41.226562 74.890625 -42.910156 73.234375 -44.296875 C 71.585938 -45.691406 69.3125 -46.914062 66.40625 -47.96875 C 63.5 -49.03125 60.160156 -50.085938 56.390625 -51.140625 C 52.628906 -52.191406 48.632812 -53.445312 44.40625 -54.90625 C 38.1875 -57.019531 32.832031 -59.296875 28.34375 -61.734375 C 23.851562 -64.179688 20.15625 -66.957031 17.25 -70.0625 C 14.34375 -73.175781 12.191406 -76.710938 10.796875 -80.671875 C 9.410156 -84.640625 8.71875 -89.203125 8.71875 -94.359375 C 8.71875 -102.148438 10.140625 -109.019531 12.984375 -114.96875 C 15.828125 -120.914062 19.691406 -125.867188 24.578125 -129.828125 C 29.460938 -133.796875 35.046875 -136.800781 41.328125 -138.84375 C 47.609375 -140.894531 54.25 -141.921875 61.25 -141.921875 C 66.40625 -141.921875 71.425781 -141.425781 76.3125 -140.4375 C 81.195312 -139.445312 85.921875 -138.191406 90.484375 -136.671875 C 95.046875 -135.148438 99.304688 -133.5 103.265625 -131.71875 C 107.234375 -129.9375 110.800781 -128.25 113.96875 -126.65625 Z M 97.328125 -94.75 "/></g></g></g><g fill="#1d1d1f" fill-opacity="1"><g transform="translate(949.432899, 481.308888)"><g><path d="M 112.390625 -33.703125 L 112.390625 0 L 12.09375 0 L 12.09375 -140.734375 L 110.609375 -140.734375 L 110.609375 -107.03125 L 50.75 -107.03125 L 50.75 -87.21875 L 101.890625 -87.21875 L 101.890625 -55.890625 L 50.75 -55.890625 L 50.75 -33.703125 Z M 112.390625 -33.703125 "/></g></g></g><g fill="#1d1d1f" fill-opacity="1"><g transform="translate(495.957461, 678.794312)"><g><path d="M 136.578125 -140.734375 L 136.578125 0 L 97.921875 0 L 97.921875 -55.109375 L 50.75 -55.109375 L 50.75 0 L 12.09375 0 L 12.09375 -140.734375 L 50.75 -140.734375 L 50.75 -88.796875 L 97.921875 -88.796875 L 97.921875 -140.734375 Z M 136.578125 -140.734375 "/></g></g></g><g fill="#1d1d1f" fill-opacity="1"><g transform="translate(644.605439, 678.794312)"><g><path d="M 73.34375 -33.109375 C 77.832031 -33.109375 81.660156 -34.097656 84.828125 -36.078125 C 88.003906 -38.054688 90.582031 -40.664062 92.5625 -43.90625 C 94.550781 -47.144531 96.003906 -50.878906 96.921875 -55.109375 C 97.847656 -59.335938 98.3125 -63.765625 98.3125 -68.390625 L 98.3125 -140.734375 L 136.96875 -140.734375 L 136.96875 -68.390625 C 136.96875 -58.609375 135.710938 -49.453125 133.203125 -40.921875 C 130.691406 -32.398438 126.789062 -25.035156 121.5 -18.828125 C 116.21875 -12.617188 109.578125 -7.726562 101.578125 -4.15625 C 93.585938 -0.59375 84.175781 1.1875 73.34375 1.1875 C 62.113281 1.1875 52.5 -0.691406 44.5 -4.453125 C 36.507812 -8.222656 29.9375 -13.28125 24.78125 -19.625 C 19.625 -25.96875 15.851562 -33.332031 13.46875 -41.71875 C 11.09375 -50.113281 9.90625 -59.003906 9.90625 -68.390625 L 9.90625 -140.734375 L 48.5625 -140.734375 L 48.5625 -68.390625 C 48.5625 -63.765625 49.023438 -59.300781 49.953125 -55 C 50.878906 -50.707031 52.332031 -46.941406 54.3125 -43.703125 C 56.289062 -40.460938 58.832031 -37.882812 61.9375 -35.96875 C 65.039062 -34.0625 68.84375 -33.109375 73.34375 -33.109375 Z M 73.34375 -33.109375 "/></g></g></g><g fill="#1d1d1f" fill-opacity="1"><g transform="translate(791.469648, 678.794312)"><g><path d="M 131.8125 -36.078125 C 131.8125 -29.734375 130.488281 -24.28125 127.84375 -19.71875 C 125.207031 -15.164062 121.578125 -11.429688 116.953125 -8.515625 C 112.328125 -5.609375 106.941406 -3.460938 100.796875 -2.078125 C 94.648438 -0.691406 88.140625 0 81.265625 0 L 12.09375 0 L 12.09375 -140.734375 L 93.75 -140.734375 C 98.644531 -140.734375 103.070312 -139.675781 107.03125 -137.5625 C 111 -135.445312 114.367188 -132.703125 117.140625 -129.328125 C 119.921875 -125.960938 122.070312 -122.132812 123.59375 -117.84375 C 125.113281 -113.550781 125.875 -109.15625 125.875 -104.65625 C 125.875 -98.050781 124.1875 -91.738281 120.8125 -85.71875 C 117.445312 -79.707031 112.394531 -75.1875 105.65625 -72.15625 C 113.707031 -69.769531 120.078125 -65.632812 124.765625 -59.75 C 129.460938 -53.875 131.8125 -45.984375 131.8125 -36.078125 Z M 92.5625 -44 C 92.5625 -47.4375 91.632812 -50.3125 89.78125 -52.625 C 87.9375 -54.9375 85.5625 -56.09375 82.65625 -56.09375 L 50.75 -56.09375 L 50.75 -32.515625 L 81.265625 -32.515625 C 84.441406 -32.515625 87.117188 -33.503906 89.296875 -35.484375 C 91.472656 -37.460938 92.5625 -40.300781 92.5625 -44 Z M 50.75 -107.828125 L 50.75 -86.21875 L 77.109375 -86.21875 C 79.753906 -86.21875 82.164062 -86.945312 84.34375 -88.40625 C 86.519531 -89.863281 87.609375 -92.769531 87.609375 -97.125 C 87.609375 -100.957031 86.679688 -103.695312 84.828125 -105.34375 C 82.984375 -107 80.804688 -107.828125 78.296875 -107.828125 Z M 50.75 -107.828125 "/></g></g></g></svg>