<svg xmlns="http://www.w3.org/2000/svg" xmlns:xlink="http://www.w3.org/1999/xlink" width="1920" zoomAndPan="magnify" viewBox="0 0 1440 809.999993" height="1080" preserveAspectRatio="xMidYMid meet" version="1.0"><defs><clipPath id="90da05b49c"><path d="M 222 49.425781 L 592 49.425781 L 592 632 L 222 632 Z M 222 49.425781 " clip-rule="nonzero"/></clipPath></defs><rect x="-144" width="1728" fill="#ffffff" y="-80.999999" height="971.999992" fill-opacity="1"/><rect x="-144" width="1728" fill="#f7f7f7" y="-80.999999" height="971.999992" fill-opacity="1"/><path fill="#9896e6" d="M 465.394531 590.675781 C 429.695312 610.261719 425.789062 657.011719 440.613281 691.28125 C 459.164062 734.167969 512.441406 746.21875 553.941406 752.144531 C 611.890625 760.421875 672.714844 751.398438 729.203125 737.785156 C 766.644531 728.765625 814.503906 714.296875 831.96875 676.207031 C 836.746094 665.789062 837.269531 653.09375 828.972656 644.40625 C 823.371094 638.539062 813.53125 637.019531 806.839844 641.746094 C 798.101562 647.921875 800.691406 660.90625 804.359375 669.113281 C 809.765625 681.207031 824.054688 685.980469 836.046875 687.964844 C 850.058594 690.28125 864.367188 689.160156 878.476562 688.800781 C 896.179688 688.355469 912.363281 684.859375 928.226562 676.761719 C 960.882812 660.09375 982.601562 625.152344 972.804688 588.394531 C 971.777344 584.535156 965.796875 586.175781 966.828125 590.042969 C 981.183594 643.914062 926.449219 681.769531 878.476562 682.605469 C 860.726562 682.914062 842.507812 684.796875 825.375 678.972656 C 815.753906 675.699219 809.484375 668.558594 807.484375 658.664062 C 805.835938 650.511719 810.320312 643.433594 819.070312 645.578125 C 827.011719 647.527344 829.566406 656.109375 829.195312 663.28125 C 828.585938 675.058594 819.699219 686.078125 811.679688 693.925781 C 795.125 710.121094 771.808594 718.90625 750.121094 725.664062 C 695.574219 742.65625 635.433594 751.253906 578.433594 748.324219 C 536.082031 746.144531 480.871094 737.3125 453.503906 701.199219 C 430.210938 670.460938 432.363281 615.871094 468.527344 596.027344 C 472.03125 594.105469 468.902344 588.753906 465.394531 590.675781 Z M 465.394531 590.675781 " fill-opacity="1" fill-rule="nonzero"/><path fill="#8edea5" d="M 1017.324219 386.136719 C 1035.128906 386.136719 1052.933594 386.136719 1070.738281 386.136719 C 1074.738281 386.136719 1074.738281 379.9375 1070.738281 379.9375 C 1052.933594 379.9375 1035.128906 379.9375 1017.324219 379.9375 C 1013.328125 379.9375 1013.328125 386.136719 1017.324219 386.136719 Z M 1017.324219 386.136719 " fill-opacity="1" fill-rule="nonzero"/><path fill="#8edea5" d="M 696.421875 446.929688 C 696.609375 429.988281 703.828125 382.757812 675.996094 382.847656 C 652.507812 382.921875 651.570312 428.707031 650.566406 443.941406 C 648.675781 472.625 645.578125 503.171875 651.289062 531.476562 C 653.945312 544.625 660.488281 553.960938 674.71875 554.503906 C 691.085938 555.128906 696.089844 535.566406 696.425781 522.921875 C 696.53125 518.921875 690.332031 518.933594 690.226562 522.921875 C 690.019531 530.726562 688.859375 538.476562 683.492188 544.5 C 678.292969 550.339844 667.902344 549.074219 662.902344 543.777344 C 654.746094 535.136719 655.222656 517.285156 654.8125 506.367188 C 654.054688 486.265625 655.519531 465.914062 656.648438 445.832031 C 657.277344 434.683594 658.394531 423.546875 660.792969 412.628906 C 662.539062 404.691406 665.542969 392.257812 674.328125 389.339844 C 695.941406 382.15625 690.335938 436.726562 690.226562 446.925781 C 690.179688 450.925781 696.378906 450.921875 696.421875 446.929688 Z M 696.421875 446.929688 " fill-opacity="1" fill-rule="nonzero"/><path fill="#8edea5" d="M 1009.335938 446.929688 C 1009.523438 429.988281 1016.742188 382.757812 988.910156 382.847656 C 965.425781 382.921875 964.484375 428.707031 963.480469 443.941406 C 961.589844 472.625 958.492188 503.171875 964.207031 531.476562 C 966.859375 544.625 973.402344 553.960938 987.632812 554.503906 C 1004 555.128906 1009.003906 535.566406 1009.339844 522.921875 C 1009.445312 518.921875 1003.246094 518.933594 1003.140625 522.921875 C 1002.933594 530.726562 1001.773438 538.476562 996.40625 544.5 C 991.207031 550.339844 980.816406 549.074219 975.816406 543.777344 C 967.660156 535.136719 968.136719 517.285156 967.726562 506.367188 C 966.972656 486.265625 968.433594 465.914062 969.5625 445.832031 C 970.191406 434.683594 971.308594 423.546875 973.707031 412.628906 C 975.453125 404.691406 978.457031 392.257812 987.242188 389.339844 C 1008.855469 382.15625 1003.25 436.726562 1003.140625 446.925781 C 1003.09375 450.925781 1009.292969 450.921875 1009.335938 446.929688 Z M 1009.335938 446.929688 " fill-opacity="1" fill-rule="nonzero"/><path fill="#8edea5" d="M 732.988281 386.964844 C 732.574219 386.914062 732.113281 386.964844 731.613281 387.152344 C 731.109375 387.253906 730.699219 387.4375 730.371094 387.6875 C 718.6875 392.761719 715.390625 404.226562 713.917969 416.265625 C 711.371094 437.082031 710.203125 458.511719 709.234375 479.457031 C 708.554688 494.078125 706.417969 572.007812 739.855469 545.496094 C 750.835938 536.789062 752.96875 518.40625 755.195312 505.679688 C 758.476562 486.890625 759.320312 467.65625 759.308594 448.613281 C 759.289062 432.660156 759.390625 383.488281 732.988281 386.964844 Z M 753.105469 451.632812 C 753.128906 478.277344 751.398438 506.222656 742.203125 531.449219 C 740.417969 536.347656 737.1875 540.128906 732.855469 542.96875 C 722.128906 550.003906 718.109375 532.398438 716.78125 525.203125 C 713.789062 508.929688 714.855469 491.949219 715.617188 475.546875 C 716.332031 460.125 718.371094 444.820312 719.238281 429.421875 C 719.929688 417.058594 719.25 398.398438 733.265625 393.132812 C 744.792969 390.886719 749.1875 408.929688 751.0625 417.058594 C 753.636719 428.183594 753.097656 440.289062 753.105469 451.632812 Z M 753.105469 451.632812 " fill-opacity="1" fill-rule="nonzero"/><path fill="#8edea5" d="M 816.683594 378.90625 C 815.875 430.171875 815.34375 481.875 810.328125 532.929688 C 809.871094 537.59375 809.332031 542.257812 808.464844 546.863281 C 808.425781 547.074219 808.371094 547.28125 808.328125 547.492188 C 805.550781 540.382812 804.925781 531.210938 803.675781 524.328125 C 797.832031 492.101562 793.675781 459.582031 788.503906 427.246094 C 786.410156 414.128906 785.496094 398.6875 779.847656 386.464844 C 778.578125 383.714844 775.023438 382.382812 772.875 385.066406 C 769.867188 388.820312 769.941406 395.304688 769.496094 399.828125 C 764.34375 452.207031 767.863281 505.878906 767.886719 558.429688 C 767.890625 562.429688 774.089844 562.429688 774.085938 558.433594 C 774.070312 517.023438 773.3125 475.609375 774.125 434.203125 C 774.378906 421.359375 774.105469 407.855469 776.230469 395.066406 C 777.089844 398.363281 777.722656 401.734375 778.382812 405.0625 C 784.527344 436.105469 788.335938 467.632812 793.210938 498.890625 C 795.367188 512.726562 797.542969 526.589844 800.5 540.28125 C 801.339844 544.15625 802.558594 555.898438 807.742188 557.121094 C 819.617188 559.917969 819.832031 482.199219 820.140625 474.988281 C 821.507812 442.980469 822.378906 410.9375 822.882812 378.90625 C 822.949219 374.902344 816.75 374.910156 816.683594 378.90625 Z M 816.683594 378.90625 " fill-opacity="1" fill-rule="nonzero"/><path fill="#8edea5" d="M 887.945312 378.90625 C 887.136719 430.171875 886.605469 481.875 881.589844 532.929688 C 881.132812 537.59375 880.59375 542.257812 879.726562 546.863281 C 879.6875 547.074219 879.632812 547.28125 879.589844 547.492188 C 876.8125 540.382812 876.1875 531.210938 874.941406 524.328125 C 869.097656 492.101562 864.941406 459.582031 859.769531 427.246094 C 857.671875 414.128906 856.761719 398.6875 851.113281 386.464844 C 849.84375 383.714844 846.289062 382.382812 844.136719 385.066406 C 841.132812 388.820312 841.207031 395.304688 840.761719 399.828125 C 835.609375 452.207031 839.128906 505.878906 839.152344 558.429688 C 839.152344 562.429688 845.351562 562.429688 845.347656 558.433594 C 845.332031 517.023438 844.574219 475.609375 845.390625 434.203125 C 845.640625 421.359375 845.367188 407.855469 847.492188 395.066406 C 848.351562 398.363281 848.984375 401.734375 849.644531 405.0625 C 855.789062 436.105469 859.597656 467.632812 864.472656 498.890625 C 866.628906 512.726562 868.804688 526.589844 871.765625 540.28125 C 872.601562 544.15625 873.820312 555.898438 879.003906 557.121094 C 890.878906 559.917969 891.09375 482.199219 891.402344 474.988281 C 892.769531 442.980469 893.640625 410.9375 894.144531 378.90625 C 894.210938 374.902344 888.011719 374.910156 887.945312 378.90625 Z M 887.945312 378.90625 " fill-opacity="1" fill-rule="nonzero"/><path fill="#8edea5" d="M 947.050781 388.507812 C 938.660156 385.683594 929.136719 385.050781 921.242188 389.460938 C 916.609375 392.050781 915.601562 397.972656 914.542969 402.664062 C 910.160156 422.132812 908.699219 442.480469 906.96875 462.3125 C 905.144531 483.207031 903.605469 504.21875 903.449219 525.199219 C 903.417969 529.179688 902.609375 535.363281 904.636719 539.046875 C 911.238281 551.066406 928.101562 551.800781 940.117188 550.617188 C 944.058594 550.226562 944.09375 544.023438 940.117188 544.417969 C 932.257812 545.191406 910.992188 546.035156 909.890625 534.464844 C 909.421875 529.53125 909.628906 524.496094 909.730469 519.550781 C 910.046875 504.425781 911.03125 489.304688 912.207031 474.222656 C 912.507812 474.335938 912.828125 474.425781 913.199219 474.445312 C 921.644531 474.964844 930.082031 474.964844 938.527344 474.445312 C 942.5 474.203125 942.523438 468 938.527344 468.246094 C 930.082031 468.765625 921.640625 468.765625 913.199219 468.246094 C 913.011719 468.234375 912.84375 468.25 912.675781 468.265625 C 912.71875 467.742188 912.757812 467.210938 912.800781 466.683594 C 914.28125 448.566406 916.007812 430.398438 918.972656 412.457031 C 919.800781 407.445312 920.707031 402.359375 922.359375 397.542969 C 925.105469 389.542969 939.449219 392.484375 945.402344 394.484375 C 949.203125 395.761719 950.820312 389.773438 947.050781 388.507812 Z M 947.050781 388.507812 " fill-opacity="1" fill-rule="nonzero"/><path fill="#8edea5" d="M 1113.3125 388.507812 C 1104.921875 385.683594 1095.398438 385.050781 1087.503906 389.460938 C 1082.871094 392.050781 1081.863281 397.972656 1080.808594 402.664062 C 1076.421875 422.132812 1074.960938 442.480469 1073.230469 462.3125 C 1071.40625 483.207031 1069.871094 504.21875 1069.710938 525.199219 C 1069.679688 529.179688 1068.871094 535.363281 1070.898438 539.046875 C 1077.5 551.066406 1094.363281 551.800781 1106.378906 550.617188 C 1110.320312 550.226562 1110.359375 544.023438 1106.378906 544.417969 C 1098.519531 545.191406 1077.253906 546.035156 1076.152344 534.464844 C 1075.683594 529.53125 1075.890625 524.496094 1075.992188 519.550781 C 1076.308594 504.425781 1077.292969 489.304688 1078.472656 474.222656 C 1078.769531 474.335938 1079.09375 474.425781 1079.460938 474.445312 C 1087.90625 474.964844 1096.347656 474.964844 1104.789062 474.445312 C 1108.761719 474.203125 1108.785156 468 1104.789062 468.246094 C 1096.34375 468.765625 1087.902344 468.765625 1079.460938 468.246094 C 1079.273438 468.234375 1079.105469 468.25 1078.9375 468.265625 C 1078.980469 467.742188 1079.019531 467.210938 1079.0625 466.683594 C 1080.542969 448.566406 1082.269531 430.398438 1085.234375 412.457031 C 1086.0625 407.445312 1086.96875 402.359375 1088.621094 397.542969 C 1091.371094 389.542969 1105.710938 392.484375 1111.667969 394.484375 C 1115.464844 395.761719 1117.082031 389.773438 1113.3125 388.507812 Z M 1113.3125 388.507812 " fill-opacity="1" fill-rule="nonzero"/><path fill="#8edea5" d="M 1040.933594 384.136719 C 1040.933594 440.859375 1040.933594 497.578125 1040.933594 554.300781 C 1040.933594 558.300781 1047.132812 558.300781 1047.132812 554.300781 C 1047.132812 497.582031 1047.132812 440.859375 1047.132812 384.136719 C 1047.132812 380.140625 1040.933594 380.140625 1040.933594 384.136719 Z M 1040.933594 384.136719 " fill-opacity="1" fill-rule="nonzero"/><path fill="#8edea5" d="M 1169.734375 425.167969 C 1165.226562 410.242188 1158.617188 392.847656 1145.378906 383.542969 C 1137.855469 378.257812 1131.785156 379.59375 1130.425781 388.226562 C 1126.21875 415.015625 1128.363281 443.644531 1129.03125 470.613281 C 1129.523438 490.597656 1130.292969 510.59375 1131.8125 530.53125 C 1132.144531 534.894531 1131.363281 551.660156 1136.027344 555.699219 C 1136.390625 556.136719 1136.9375 556.46875 1137.683594 556.613281 C 1151.378906 559.210938 1160.832031 546.6875 1165.675781 535.597656 C 1173.0625 518.699219 1174.734375 499.371094 1175.773438 481.179688 C 1176.898438 461.492188 1175.429688 444.03125 1169.734375 425.167969 Z M 1162.871094 525.289062 C 1160.175781 534.347656 1155.683594 544.96875 1146.773438 549.503906 C 1144.9375 550.4375 1142.363281 550.808594 1140.519531 550.746094 C 1140.441406 550.546875 1140.363281 550.300781 1140.28125 549.964844 C 1139.925781 548.476562 1139.714844 546.953125 1139.496094 545.445312 C 1138.703125 540.011719 1138.316406 534.503906 1137.902344 529.035156 C 1136.734375 513.722656 1136.101562 498.371094 1135.589844 483.023438 C 1134.605469 453.433594 1133.339844 423.277344 1135.972656 393.738281 C 1136.195312 391.238281 1136.273438 387.792969 1137.371094 385.601562 C 1136.945312 386.453125 1144.351562 390.480469 1145.585938 391.613281 C 1149.320312 395.039062 1151.984375 399.5625 1154.441406 403.9375 C 1163.191406 419.535156 1168.675781 439.097656 1170.003906 456.933594 C 1171.65625 479.117188 1169.230469 503.9375 1162.871094 525.289062 Z M 1162.871094 525.289062 " fill-opacity="1" fill-rule="nonzero"/><path fill="#f699b7" d="M 692.160156 221.558594 C 679.410156 213.914062 675.003906 203.941406 688.113281 195.222656 C 705.792969 183.46875 731.519531 186.261719 746.691406 200.625 C 761.199219 214.351562 783.15625 192.46875 768.609375 178.703125 C 752.039062 163.019531 730.203125 155.617188 707.480469 157.417969 C 686.363281 159.089844 661.109375 169.5 652.132812 190.195312 C 635.085938 229.496094 680.808594 255.429688 712.808594 260.878906 C 725.589844 263.054688 742.578125 264.164062 753.058594 272.71875 C 762.648438 280.542969 759.011719 292.40625 751.484375 297.300781 C 740.761719 304.285156 726.007812 304.566406 713.472656 303.71875 C 707.683594 303.328125 701.644531 301.941406 695.738281 299.871094 C 697.398438 300.660156 696.859375 300.441406 694.125 299.21875 C 691.503906 298.089844 688.941406 296.859375 686.382812 295.589844 C 681.9375 293.382812 677.359375 290.796875 674.597656 286.554688 C 663.734375 269.878906 636.882812 285.394531 647.832031 302.199219 C 667.304688 332.09375 710.332031 338.488281 742.855469 333.019531 C 759.027344 330.300781 773.785156 322.121094 783.140625 308.550781 C 793.0625 294.164062 791.585938 272.085938 781.570312 258.289062 C 759.921875 228.472656 720.425781 238.507812 692.160156 221.558594 Z M 692.160156 221.558594 " fill-opacity="1" fill-rule="nonzero"/><path fill="#f699b7" d="M 885.765625 185.90625 C 904.867188 180.195312 896.726562 150.273438 877.523438 156.015625 C 850.90625 163.96875 822.613281 161.664062 795.484375 167.035156 C 775.886719 170.914062 784.203125 200.789062 803.726562 196.925781 C 811.128906 195.464844 818.601562 194.578125 826.09375 193.894531 C 825.769531 236.308594 825.449219 278.722656 825.125 321.136719 C 824.976562 341.132812 855.972656 341.117188 856.125 321.136719 C 856.453125 277.851562 856.78125 234.566406 857.109375 191.28125 C 866.757812 190.246094 876.34375 188.722656 885.765625 185.90625 Z M 885.765625 185.90625 " fill-opacity="1" fill-rule="nonzero"/><path fill="#f699b7" d="M 1004.394531 249.523438 C 1001.1875 233.570312 997.648438 217.664062 993.296875 201.980469 C 990.058594 190.320312 986.515625 177.574219 979.867188 167.339844 C 971.589844 154.597656 957.988281 152.015625 946.058594 161.597656 C 936.222656 169.496094 930.109375 182.609375 924.855469 193.757812 C 909.976562 225.332031 899.347656 259.027344 889.371094 292.410156 C 886.90625 300.65625 884.5 308.925781 882.25 317.234375 C 877.023438 336.5625 906.925781 344.753906 912.140625 325.476562 C 916.542969 309.199219 921.394531 293.027344 926.5625 276.96875 C 943.613281 276.035156 960.664062 275.097656 977.714844 274.164062 C 980.453125 288.671875 982.953125 303.222656 985.242188 317.796875 C 985.355469 318.519531 985.464844 319.242188 985.578125 319.964844 C 986.851562 328.332031 997.230469 332.832031 1004.644531 330.792969 C 1013.496094 328.355469 1016.738281 320.070312 1015.46875 311.726562 C 1012.304688 290.90625 1008.546875 270.164062 1004.394531 249.523438 Z M 937.203125 245.382812 C 941.320312 233.804688 945.742188 222.324219 950.820312 211.144531 C 953.253906 205.785156 955.90625 200.523438 958.839844 195.414062 C 959.035156 196.011719 959.25 196.660156 959.5 197.402344 C 964.445312 211.960938 967.902344 227.050781 971.203125 242.050781 C 971.308594 242.535156 971.402344 243.019531 971.511719 243.503906 C 960.074219 244.128906 948.636719 244.757812 937.203125 245.382812 Z M 937.203125 245.382812 " fill-opacity="1" fill-rule="nonzero"/><path fill="#f699b7" d="M 1160.101562 178.027344 C 1159.574219 163.605469 1138.347656 155.585938 1131.21875 170.207031 C 1126.335938 180.222656 1120.589844 189.863281 1114.5 199.1875 C 1106.183594 211.921875 1093.035156 229.046875 1081.824219 233.015625 C 1078.515625 234.1875 1078.917969 233.992188 1077.15625 233.582031 C 1075.332031 233.152344 1074.585938 232.464844 1072.375 229.964844 C 1068.445312 225.519531 1065.675781 213.003906 1064.035156 205.367188 C 1061.148438 191.925781 1059.851562 177.988281 1059.53125 164.25 C 1059.066406 144.292969 1028.070312 144.246094 1028.535156 164.25 C 1029.277344 196.167969 1034.097656 269.980469 1081.613281 264.492188 C 1101.332031 262.214844 1116.199219 247.933594 1128.261719 232.757812 C 1127.777344 239.667969 1127.15625 246.566406 1126.359375 253.429688 C 1124.726562 267.5 1122.566406 281.957031 1112.839844 292.703125 C 1099.949219 306.9375 1079.628906 314.625 1060.554688 311.882812 C 1052.199219 310.679688 1043.9375 313.804688 1041.488281 322.707031 C 1039.460938 330.070312 1043.933594 340.570312 1052.3125 341.777344 C 1098.738281 348.457031 1144.171875 322.546875 1154.003906 275.429688 C 1160.597656 243.820312 1161.277344 210.230469 1160.101562 178.027344 Z M 1160.101562 178.027344 " fill-opacity="1" fill-rule="nonzero"/><path fill="#f699b7" d="M 383.867188 368.65625 C 383.867188 382.65625 389.058594 393.941406 372.109375 398.363281 C 357.375 402.785156 337.554688 400.054688 327.238281 414.792969 C 319.132812 425.84375 313.976562 444.265625 309.554688 457.53125 C 305.132812 472.265625 298.503906 488.476562 298.503906 503.953125 C 298.503906 522.375 288.921875 546.6875 306.609375 559.214844 C 325.765625 572.480469 367.882812 581.378906 404.726562 582.117188 C 441.566406 582.851562 488.957031 576.164062 503.691406 568.796875 C 522.847656 558.480469 513.636719 436.269531 479.652344 410.042969 C 463.421875 397.515625 446.019531 399.675781 437.914062 396.730469 C 428.335938 393.046875 422.972656 384.929688 426.121094 365.890625 Z M 383.867188 368.65625 " fill-opacity="1" fill-rule="nonzero"/><path fill="#ffdd8f" d="M 425.070312 247.28125 C 416.105469 244.925781 406.714844 244.621094 397.902344 246.882812 C 390.574219 248.761719 381.714844 252.449219 375.726562 257.152344 C 368.085938 263.144531 359.292969 272.304688 354.890625 281.050781 C 349.492188 291.785156 344.355469 307.394531 344.597656 319.558594 C 344.820312 330.910156 348.851562 346.605469 356.039062 355.695312 C 364.054688 365.839844 379.992188 375.636719 392.816406 377.949219 C 419 382.660156 446.757812 369.65625 458.875 346.269531 C 468.636719 327.421875 473.46875 302.226562 465.769531 282.003906 C 459.28125 264.960938 443.027344 252.003906 425.070312 247.28125 Z M 425.070312 247.28125 " fill-opacity="1" fill-rule="nonzero"/><path fill="#8edea5" d="M 281.230469 427.8125 C 279.730469 420.578125 272.320312 394.511719 272.363281 387.515625 C 272.117188 384.195312 273.226562 378.824219 277.605469 381.359375 C 279.929688 382.542969 280.792969 387.390625 281.675781 389.90625 C 282.640625 393.140625 283.632812 396.539062 284.566406 397.863281 C 285.960938 399.832031 288.070312 399.203125 286.925781 394.394531 C 285.777344 389.585938 283.523438 380.949219 282.679688 372.605469 C 282.695312 370.273438 281.84375 363.09375 286.238281 363.300781 C 289.464844 363.5 291.230469 369.035156 291.933594 371.28125 C 292.894531 375.683594 294.648438 381.363281 295.605469 385.765625 C 296.476562 389.445312 298.816406 395.339844 299.527344 395.449219 C 301.863281 395.800781 298.414062 379.75 297.640625 374.453125 C 297.125 371.3125 294.980469 356.003906 301.074219 357.027344 C 305.371094 357.679688 306.445312 366.15625 308.183594 374.296875 C 309.925781 382.441406 311.0625 393.796875 314.1875 393.355469 C 317.3125 392.910156 310.320312 368.757812 313.871094 359.839844 C 314.964844 357.097656 320.574219 356.273438 322.363281 364.953125 C 323.824219 372.035156 323.464844 375.753906 324.679688 382.308594 C 325.898438 387.699219 326.25 398.285156 328.320312 399.089844 C 330.386719 399.898438 332.195312 395.289062 332.769531 392.289062 C 333.726562 387.273438 334.996094 385.28125 337.519531 383.234375 C 346.796875 376.746094 343.777344 395.5 342.945312 399.53125 C 341.191406 406.875 341.410156 414.859375 337.421875 421.738281 C 333.878906 428.710938 329.351562 430.828125 329.476562 439.257812 C 329.632812 443.027344 333.09375 459.695312 334.730469 467.585938 C 339.273438 489.496094 353.417969 533.1875 346.875 555.441406 C 337.632812 586.894531 308.996094 596.339844 289.113281 571.261719 C 269.238281 546.179688 290.394531 472.105469 281.230469 427.8125 Z M 281.230469 427.8125 " fill-opacity="1" fill-rule="nonzero"/><g clip-path="url(#90da05b49c)"><path fill="#f699b7" d="M 587.171875 211.785156 C 589.070312 176.300781 591.574219 159.984375 591.601562 123.554688 C 591.625 63.636719 558.414062 49.347656 517.585938 49.425781 C 502.191406 49.480469 329.460938 49.453125 308.398438 49.425781 C 283.226562 49.425781 222.097656 64.636719 222.546875 143.140625 C 222.707031 170.132812 227.109375 324.769531 224.550781 390.878906 C 221.96875 451.113281 221.941406 553.949219 222.207031 578.203125 C 222.441406 602.429688 231.378906 631.769531 275.714844 630.160156 C 296.988281 629.394531 484.871094 631.636719 501.796875 631.636719 C 566.085938 631.636719 591.601562 585.136719 591.601562 547.804688 C 591.574219 531.332031 583.667969 277.027344 587.171875 211.785156 Z M 534.859375 557.570312 C 529.136719 565.820312 260.347656 565.117188 251.9375 558.449219 C 243.53125 551.777344 246.578125 166.746094 256.332031 158.601562 C 266.082031 150.457031 520.394531 154.457031 527.832031 164.789062 C 535.238281 175.152344 540.601562 549.316406 534.859375 557.570312 Z M 534.859375 557.570312 " fill-opacity="1" fill-rule="nonzero"/></g><path fill="#9896e6" d="M 546.738281 585.105469 C 546.394531 569.871094 539.882812 301.753906 543.074219 241.332031 C 544.789062 208.460938 547.078125 159.613281 546.683594 125.871094 C 546.390625 100.066406 532.027344 89.707031 509.9375 91.074219 C 495.996094 91.074219 284.148438 90.96875 265.039062 91.074219 C 245.929688 91.179688 237.597656 110.742188 237.386719 135.730469 C 237.175781 160.746094 241.3125 328.957031 238.996094 390.195312 C 236.675781 445.972656 236.886719 563.675781 237.097656 586.136719 C 237.335938 608.59375 246.773438 611.414062 266.066406 611.625 C 285.359375 611.835938 512.101562 614.605469 527.308594 612.496094 C 542.492188 610.363281 547.054688 600.371094 546.738281 585.105469 Z M 523.410156 541.269531 C 517.691406 549.519531 268.703125 550.628906 260.292969 543.957031 C 251.882812 537.289062 262.296875 295.140625 261.03125 267.300781 C 259.792969 238.066406 255.285156 183.050781 265.039062 174.90625 C 274.789062 166.761719 514.738281 167.710938 522.171875 178.042969 C 529.578125 188.402344 524.671875 424.386719 525.941406 452.222656 C 527.179688 481.429688 529.15625 533.019531 523.410156 541.269531 Z M 523.410156 541.269531 " fill-opacity="1" fill-rule="nonzero"/><path fill="#fffdf0" d="M 360.964844 143.226562 C 383.804688 144.960938 406.507812 141.402344 429.335938 141.183594 C 437.226562 141.109375 437.234375 128.863281 429.335938 128.9375 C 406.507812 129.15625 383.804688 132.714844 360.964844 130.980469 C 353.085938 130.378906 353.140625 142.628906 360.964844 143.226562 Z M 360.964844 143.226562 " fill-opacity="1" fill-rule="nonzero"/><path fill="#fffdf0" d="M 414.648438 574.222656 C 399.644531 576.851562 384.253906 575.042969 369.128906 574.914062 C 357.277344 574.8125 357.289062 593.179688 369.128906 593.285156 C 386.054688 593.433594 402.742188 594.878906 419.53125 591.9375 C 431.183594 589.890625 426.226562 572.191406 414.648438 574.222656 Z M 414.648438 574.222656 " fill-opacity="1" fill-rule="nonzero"/><path fill="#fffdf0" d="M 357.675781 143.226562 C 380.515625 144.960938 403.21875 141.402344 426.046875 141.183594 C 433.9375 141.109375 433.945312 128.863281 426.046875 128.9375 C 403.21875 129.15625 380.515625 132.714844 357.675781 130.980469 C 349.792969 130.378906 349.851562 142.628906 357.675781 143.226562 Z M 357.675781 143.226562 " fill-opacity="1" fill-rule="nonzero"/><path fill="#fffdf0" d="M 413.398438 574.222656 C 398.398438 576.851562 383.003906 575.042969 367.878906 574.914062 C 356.03125 574.8125 356.039062 593.179688 367.878906 593.285156 C 384.804688 593.433594 401.496094 594.878906 418.28125 591.9375 C 429.933594 589.890625 424.980469 572.191406 413.398438 574.222656 Z M 413.398438 574.222656 " fill-opacity="1" fill-rule="nonzero"/><path fill="#f699b7" d="M 546.480469 94.132812 C 552.464844 92.941406 557.160156 89.015625 562.808594 86.988281 C 566.5 85.664062 564.910156 79.746094 561.183594 81.082031 C 555.566406 83.097656 550.753906 87.054688 544.855469 88.226562 C 540.984375 88.996094 542.625 94.898438 546.480469 94.132812 Z M 546.480469 94.132812 " fill-opacity="1" fill-rule="nonzero"/><path fill="#9896e6" d="M 380.144531 306.835938 C 376.546875 303.699219 370.601562 308.199219 370.050781 313.054688 C 369.660156 316.519531 371.59375 320.742188 375.347656 321.390625 C 380.519531 322.28125 383.511719 314.808594 382.160156 310.296875 C 381.675781 308.683594 380.972656 307.558594 380.144531 306.835938 Z M 380.144531 306.835938 " fill-opacity="1" fill-rule="nonzero"/><path fill="#9896e6" d="M 441.816406 306.835938 C 438.21875 303.699219 432.273438 308.199219 431.722656 313.054688 C 431.332031 316.519531 433.265625 320.742188 437.019531 321.390625 C 442.191406 322.28125 445.183594 314.808594 443.832031 310.296875 C 443.347656 308.683594 442.644531 307.558594 441.816406 306.835938 Z M 441.816406 306.835938 " fill-opacity="1" fill-rule="nonzero"/><path fill="#ffdd8f" d="M 374.050781 405.757812 C 384.332031 417.523438 399.394531 423.957031 415.101562 421.839844 C 425.519531 420.433594 441.5 416.425781 444.097656 404.386719 C 444.941406 400.488281 438.964844 398.832031 438.121094 402.738281 C 436.046875 412.335938 420.761719 415.171875 412.472656 415.910156 C 399.132812 417.097656 387.0625 411.246094 378.4375 401.371094 C 375.800781 398.355469 371.433594 402.761719 374.050781 405.757812 Z M 374.050781 405.757812 " fill-opacity="1" fill-rule="nonzero"/><path fill="#9896e6" d="M 949.070312 623.851562 C 957.136719 611.910156 965.199219 599.96875 973.265625 588.027344 C 971.480469 588.027344 969.699219 588.027344 967.914062 588.027344 C 975.980469 599.566406 984.042969 611.109375 992.109375 622.644531 C 994.382812 625.894531 999.757812 622.800781 997.460938 619.515625 C 989.398438 607.976562 981.332031 596.4375 973.265625 584.898438 C 971.894531 582.9375 969.277344 582.882812 967.914062 584.898438 C 959.847656 596.839844 951.78125 608.78125 943.71875 620.722656 C 941.472656 624.046875 946.847656 627.144531 949.070312 623.851562 Z M 949.070312 623.851562 " fill-opacity="1" fill-rule="nonzero"/><path fill="#fffdf0" d="M 668.683594 205.890625 C 666.328125 194.273438 678.179688 184.34375 687.671875 180.570312 C 697.464844 176.679688 709.046875 177.816406 719.113281 179.734375 C 723.019531 180.480469 724.6875 174.503906 720.765625 173.757812 C 706.144531 170.972656 690.050781 170.46875 677.128906 178.996094 C 667.863281 185.105469 660.414062 196.222656 662.707031 207.539062 C 663.496094 211.457031 669.46875 209.792969 668.683594 205.890625 Z M 668.683594 205.890625 " fill-opacity="1" fill-rule="nonzero"/><path fill="#fffdf0" d="M 799.808594 184.902344 C 817.683594 182.210938 835.28125 177.941406 853.230469 175.714844 C 857.144531 175.230469 857.191406 169.023438 853.230469 169.515625 C 834.726562 171.8125 816.585938 176.152344 798.160156 178.925781 C 794.214844 179.519531 795.898438 185.492188 799.808594 184.902344 Z M 799.808594 184.902344 " fill-opacity="1" fill-rule="nonzero"/><path fill="#fffdf0" d="M 928.03125 225.621094 C 933.636719 211.839844 950.203125 157.734375 970.894531 182.039062 C 973.492188 185.089844 977.855469 180.683594 975.28125 177.65625 C 948.988281 146.773438 929.226562 206.339844 922.050781 223.976562 C 920.542969 227.679688 926.542969 229.273438 928.03125 225.621094 Z M 928.03125 225.621094 " fill-opacity="1" fill-rule="nonzero"/><path fill="#fffdf0" d="M 1037.148438 162.28125 C 1037.5 182.144531 1042.3125 201.195312 1048.625 219.9375 C 1049.894531 223.707031 1055.886719 222.089844 1054.605469 218.289062 C 1048.46875 200.066406 1043.691406 181.613281 1043.347656 162.28125 C 1043.277344 158.289062 1037.078125 158.28125 1037.148438 162.28125 Z M 1037.148438 162.28125 " fill-opacity="1" fill-rule="nonzero"/><path fill="#fffdf0" d="M 1123.035156 215.105469 C 1127.210938 211.09375 1130.050781 206.167969 1133.3125 201.4375 C 1137.273438 195.695312 1142.257812 190.914062 1145.21875 184.511719 C 1146.890625 180.910156 1141.546875 177.761719 1139.867188 181.382812 C 1137.414062 186.683594 1133.535156 190.703125 1130.132812 195.363281 C 1126.371094 200.507812 1123.273438 206.285156 1118.65625 210.722656 C 1115.765625 213.496094 1120.152344 217.875 1123.035156 215.105469 Z M 1123.035156 215.105469 " fill-opacity="1" fill-rule="nonzero"/><path fill="#ffdd8f" d="M 1186.238281 315.171875 C 1183.367188 315.660156 1181.804688 336.71875 1175.890625 343.1875 C 1171.667969 347.816406 1154.226562 352.078125 1154.546875 354.511719 C 1155.164062 359.199219 1171.039062 359.355469 1178.65625 365.402344 C 1186.277344 371.453125 1185.402344 388.839844 1189.875 388.46875 C 1194.347656 388.097656 1195.191406 371.707031 1201.324219 365.382812 C 1209.394531 357.066406 1217.957031 355.511719 1217.820312 352.742188 C 1217.570312 347.871094 1202.257812 349.542969 1196.414062 341.636719 C 1190.570312 333.734375 1192.214844 314.160156 1186.238281 315.171875 Z M 1186.238281 315.171875 " fill-opacity="1" fill-rule="nonzero"/><path fill="#ffdd8f" d="M 454.839844 316.890625 C 460.296875 307.792969 472.246094 301.882812 478.945312 308.851562 C 489.859375 320.199219 468.484375 342.964844 453.023438 338.414062 " fill-opacity="1" fill-rule="nonzero"/><path fill="#ffdd8f" d="M 359.316406 316.890625 C 353.859375 307.792969 341.914062 301.882812 335.214844 308.851562 C 324.296875 320.199219 345.675781 342.964844 361.136719 338.414062 " fill-opacity="1" fill-rule="nonzero"/><path fill="#9896e6" d="M 368.773438 297.839844 C 371.703125 294.539062 376.976562 293.808594 379.890625 297.496094 C 382.367188 300.628906 386.726562 296.210938 384.273438 293.109375 C 379.359375 286.898438 369.359375 287.851562 364.390625 293.457031 C 361.75 296.433594 366.117188 300.835938 368.773438 297.839844 Z M 368.773438 297.839844 " fill-opacity="1" fill-rule="nonzero"/><path fill="#9896e6" d="M 430.851562 299.707031 C 433.777344 296.402344 439.050781 295.675781 441.964844 299.359375 C 444.445312 302.496094 448.800781 298.078125 446.347656 294.976562 C 441.433594 288.761719 431.433594 289.71875 426.464844 295.320312 C 423.824219 298.300781 428.191406 302.703125 430.851562 299.707031 Z M 430.851562 299.707031 " fill-opacity="1" fill-rule="nonzero"/><path fill="#f699b7" d="M 407.050781 315.453125 C 405.589844 315.195312 397.324219 330.003906 398.097656 334.050781 C 398.871094 338.097656 412.832031 339.21875 413.089844 334.3125 C 413.347656 329.402344 408.515625 315.710938 407.050781 315.453125 Z M 407.050781 315.453125 " fill-opacity="1" fill-rule="nonzero"/><path fill="#9896e6" d="M 384.765625 346.472656 C 395.414062 358.144531 416.136719 357.714844 428.304688 348.679688 C 431.472656 346.324219 428.390625 340.9375 425.175781 343.324219 C 415.164062 350.761719 398.058594 351.851562 389.152344 342.089844 C 386.449219 339.128906 382.078125 343.527344 384.765625 346.472656 Z M 384.765625 346.472656 " fill-opacity="1" fill-rule="nonzero"/></svg>