<?xml version="1.0" standalone="no"?>
<!DOCTYPE svg PUBLIC "-//W3C//DTD SVG 20010904//EN"
 "http://www.w3.org/TR/2001/REC-SVG-20010904/DTD/svg10.dtd">
<svg version="1.0" xmlns="http://www.w3.org/2000/svg"
 width="178.039423pt" height="288.500000pt" viewBox="0 0 178.039423 288.500000"
 preserveAspectRatio="xMidYMid meet">
<metadata>
Created by Potrace Professional 1.1m
</metadata>
<g transform="translate(-39.967333,345.000000) rotate(-360.00) scale(0.095238,-0.095238)"
fill="#000000" stroke="none">
<path d="M1515 2108 l2 -1515 384 0 383 0 2 1515 3 1515 -388 0 -389 0 3
-1515z"/>
<path d="M422 2859 l3 -281 478 0 478 0 3 281 2 281 -483 0 -483 0 2 -281z"/>
<path d="M427 2387 c-4 -4 -7 -131 -7 -283 l0 -277 483 0 483 0 -2 281 -3 281
-474 2 c-260 2 -476 0 -480 -4z"/>
<path d="M425 1625 c-3 -8 -4 -134 -3 -281 l3 -268 478 0 478 0 0 279 0 278
-476 2 c-378 3 -476 0 -480 -10z"/>
</g>
</svg>
